<?xml version="1.0" encoding="utf-8"?>
<!-- Generator: Adobe Illustrator 23.0.4, SVG Export Plug-In . SVG Version: 6.00 Build 0)  -->
<svg version="1.1" id="Layer_1" xmlns="http://www.w3.org/2000/svg" xmlns:xlink="http://www.w3.org/1999/xlink" x="0px" y="0px"
	 viewBox="0 0 284 76" enable-background="new 0 0 284 76" xml:space="preserve">
<path fill-rule="evenodd" clip-rule="evenodd" fill="#FFFFFF" d="M27.729,5.18h-8.871v40.26h9.855l-0.221-24.266L43.896,45.44h8.931
	V5.18h-9.578l-0.055,24.536L27.729,5.18z M89.681,33.471c0.71-5.549-0.433-10.393-4.248-14.475
	c-2.827-2.989-6.801-4.787-11.43-4.787c-9.201,0-15.842,7.781-15.842,16.213c0,8.976,7.351,16.005,16.005,16.005
	c3.101,0,6.093-0.925,8.6-2.731c2.558-1.738,4.685-4.352,6.153-7.725h-9.253c-1.091,1.578-2.616,2.828-5.499,2.828
	c-3.541,0-6.584-2.122-6.969-5.329L89.681,33.471L89.681,33.471z M67.305,26.616c0.221-1.413,2.07-4.788,6.754-4.788
	c4.681,0,6.53,3.375,6.75,4.788H67.305z M93.548,30.315c0,7.399,5.282,16.059,16.278,16.059c10.999,0,16.279-8.66,16.279-16.059
	c0-7.4-5.281-16.049-16.279-16.049c-10.996,0-16.278,8.649-16.278,15.995V30.315z M102.584,30.315c0-4.408,3.321-7.617,7.242-7.617
	c3.92,0,7.241,3.209,7.241,7.617c0,4.406-3.32,7.616-7.241,7.616s-7.242-3.21-7.242-7.564V30.315z"/>
<path fill-rule="evenodd" clip-rule="evenodd" fill="#EE2929" d="M129.315,32.111c-0.273,7.887,3.974,14.1,14.535,14.1
	c10.673,0,14.044-6.485,14.044-12.902c0-4.679-1.904-8.164-9.415-11.536c-7.243-3.263-8.331-3.753-8.331-5.604
	c0-1.903,1.741-3.156,3.538-3.156c3.16,0,3.485,2.555,3.702,3.917h10.183c-0.161-9.682-8.004-12.511-13.555-12.511
	c-6.755,0-14.102,4.296-14.102,12.404c0,7.561,7.023,10.389,9.855,11.534c6.205,2.611,7.897,3.263,7.897,5.385
	c0,1.848-1.472,3.861-3.919,3.861c-1.312,0-4.196-0.816-4.196-5.493h-10.236V32.111z M161.05,25.801
	c0,10.336,8.496,20.41,21.182,20.41c12.521,0,21.34-9.694,21.34-20.903c0-11.206-8.876-20.888-21.288-20.888
	c-11.105,0-21.233,8.159-21.233,21.324L161.05,25.801L161.05,25.801z M171.342,25.204c0-5.659,3.867-11.755,10.997-11.755
	c7.403,0,10.942,6.694,10.942,11.916c0,5.165-3.539,11.804-10.833,11.804c-6.914,0-11.106-5.766-11.106-11.913V25.204z
	 M209.122,45.44h10.289V30.097h11.269v-9.031h-11.269v-6.855h11.707v-9.03h-21.996V45.44z M241.513,45.44h10.288V14.212h7.895V5.181
	h-26.132v9.031h7.949L241.513,45.44L241.513,45.44z"/>
<path fill-rule="evenodd" clip-rule="evenodd" fill="#FFFFFF" d="M22.727,71.683h-1.64V56.616h-3.344v-1.642h8.326v1.642h-3.341
	v15.067H22.727z M36.051,62.47h7.019v1.651h-7.019v5.946h7.019v1.617h-8.671V54.975h8.671v1.642h-7.019V62.47z M66.147,59.301
	c-0.745-1.038-1.588-1.805-2.514-2.295c-0.923-0.492-1.981-0.733-3.164-0.733c-1.86,0-3.454,0.689-4.773,2.062
	c-1.319,1.379-1.978,3.019-1.978,4.918c0,2.018,0.66,3.718,1.97,5.108c1.312,1.381,2.908,2.076,4.781,2.076
	c1.15,0,2.201-0.245,3.133-0.725c0.934-0.484,1.744-1.204,2.434-2.158h1.949c-0.766,1.42-1.789,2.522-3.076,3.302
	c-1.284,0.776-2.727,1.163-4.328,1.163c-2.454,0-4.504-0.841-6.144-2.516c-1.64-1.67-2.462-3.767-2.462-6.273
	c0-1.172,0.224-2.28,0.666-3.331c0.441-1.05,1.094-1.992,1.949-2.837c0.798-0.793,1.693-1.396,2.678-1.803
	c0.995-0.414,2.071-0.619,3.224-0.619c1.661,0,3.153,0.405,4.484,1.215c1.32,0.811,2.371,1.96,3.145,3.445h-1.974V59.301z
	 M78.784,71.683h-1.657V54.975h1.657v7.495h7.936v-7.495h1.645v16.708H86.72v-7.62h-7.936V71.683z M109.213,69.69l-0.196-14.715
	h1.633v16.708h-1.979L99.503,56.95l0.184,14.733h-1.615V54.975h1.973L109.213,69.69z M121.298,63.253
	c0,2.033,0.658,3.743,1.981,5.119c1.323,1.375,2.956,2.066,4.9,2.066c1.898,0,3.499-0.7,4.81-2.09
	c1.307-1.392,1.957-3.108,1.957-5.144c0-1.899-0.669-3.529-2.018-4.906c-1.342-1.377-2.963-2.061-4.864-2.061
	c-0.77,0-1.515,0.133-2.23,0.398c-0.714,0.265-1.372,0.654-1.981,1.166c-0.795,0.67-1.424,1.492-1.878,2.466
	C121.523,61.239,121.298,62.233,121.298,63.253 M119.573,63.23c0-1.165,0.224-2.275,0.674-3.331
	c0.449-1.059,1.091-2.002,1.941-2.837c0.822-0.802,1.725-1.405,2.708-1.812c0.982-0.404,2.05-0.61,3.196-0.61
	c1.167,0,2.25,0.206,3.249,0.619c0.998,0.406,1.913,1.018,2.738,1.828c0.851,0.833,1.489,1.764,1.918,2.8
	c0.425,1.036,0.642,2.144,0.642,3.343c0,1.18-0.184,2.269-0.554,3.263c-0.364,0.991-0.918,1.892-1.648,2.702
	c-0.851,0.934-1.809,1.634-2.88,2.112c-1.074,0.472-2.233,0.712-3.489,0.712c-2.402,0-4.42-0.841-6.044-2.531
	C120.386,67.798,119.573,65.713,119.573,63.23 M153.082,71.683h-7.525V54.975h1.653v15.091h5.872V71.683z M162.743,63.253
	c0,2.033,0.664,3.743,1.987,5.119c1.323,1.375,2.956,2.066,4.9,2.066c1.892,0,3.497-0.7,4.805-2.09
	c1.306-1.392,1.965-3.108,1.965-5.144c0-1.899-0.674-3.529-2.026-4.906c-1.343-1.377-2.963-2.061-4.86-2.061
	c-0.774,0-1.519,0.133-2.23,0.398c-0.717,0.265-1.376,0.654-1.981,1.166c-0.798,0.67-1.423,1.492-1.876,2.466
	C162.968,61.239,162.743,62.233,162.743,63.253 M161.024,63.23c0-1.165,0.224-2.275,0.669-3.331c0.454-1.059,1.1-2.002,1.946-2.837
	c0.823-0.802,1.72-1.405,2.702-1.812c0.983-0.404,2.05-0.61,3.198-0.61c1.17,0,2.254,0.206,3.252,0.619
	c0.998,0.406,1.913,1.018,2.739,1.828c0.851,0.833,1.482,1.764,1.912,2.8c0.426,1.036,0.647,2.144,0.647,3.343
	c0,1.18-0.189,2.269-0.554,3.263c-0.361,0.991-0.918,1.892-1.649,2.702c-0.854,0.934-1.812,1.634-2.883,2.112
	c-1.07,0.472-2.23,0.712-3.485,0.712c-2.402,0-4.419-0.841-6.049-2.531C161.841,67.798,161.024,65.713,161.024,63.23
	 M192.831,63.674h10.383c-0.136,2.433-1.011,4.431-2.626,5.997c-1.612,1.567-3.594,2.348-5.94,2.348
	c-2.41,0-4.431-0.841-6.056-2.527c-1.625-1.682-2.439-3.772-2.439-6.262c0-1.172,0.225-2.28,0.666-3.331
	c0.45-1.05,1.096-1.992,1.954-2.837c0.825-0.818,1.736-1.426,2.738-1.825c1.007-0.397,2.118-0.597,3.337-0.597
	c1.624,0,3.08,0.394,4.371,1.178c1.287,0.787,2.323,1.908,3.1,3.36H200.3c-0.786-1-1.629-1.745-2.532-2.225
	c-0.894-0.477-1.901-0.717-3.011-0.717c-1.922,0-3.542,0.685-4.873,2.061c-1.324,1.376-1.986,3.023-1.986,4.955
	c0,2.047,0.662,3.76,1.986,5.128c1.324,1.371,2.959,2.057,4.9,2.057c1.528,0,2.9-0.492,4.115-1.469
	c1.211-0.981,1.998-2.25,2.366-3.812h-8.434V63.674z M213.755,71.683h-1.641V54.975h1.641V71.683z M225.145,62.47h7.027v1.651
	h-7.027v5.946h7.027v1.617h-8.675V54.975h8.675v1.642h-7.027V62.47z M241.027,66.911h1.581c0.032,1.031,0.328,1.857,0.877,2.466
	c0.562,0.615,1.287,0.922,2.186,0.922c0.971,0,1.745-0.307,2.318-0.916c0.565-0.605,0.855-1.432,0.855-2.472
	c0-1.514-1.175-2.663-3.514-3.431c-0.19-0.063-0.321-0.107-0.415-0.139c-1.222-0.423-2.105-0.954-2.642-1.6
	c-0.537-0.648-0.814-1.49-0.814-2.531c0-1.331,0.421-2.421,1.252-3.269c0.827-0.851,1.901-1.274,3.212-1.274
	c1.259,0,2.25,0.387,2.987,1.159c0.735,0.773,1.143,1.859,1.228,3.262h-1.552c-0.084-0.917-0.356-1.616-0.814-2.11
	c-0.458-0.495-1.075-0.74-1.849-0.74c-0.822,0-1.5,0.271-2.021,0.811c-0.525,0.534-0.79,1.225-0.79,2.061
	c0,0.434,0.08,0.808,0.24,1.127c0.157,0.32,0.405,0.608,0.75,0.872c0.352,0.258,1.022,0.546,2.022,0.867
	c0.569,0.186,1.006,0.334,1.307,0.452c1.082,0.418,1.869,0.954,2.346,1.61c0.477,0.653,0.718,1.508,0.718,2.577
	c0,1.624-0.446,2.927-1.323,3.919c-0.887,0.992-2.058,1.487-3.518,1.487c-1.368,0-2.471-0.472-3.317-1.407
	C241.485,69.676,241.051,68.444,241.027,66.911"/>
<path fill-rule="evenodd" clip-rule="evenodd" fill="#FFFFFF" d="M267.033,3.981c-2.859,0-5.174,2.318-5.174,5.177
	c0,2.858,2.314,5.176,5.174,5.176c2.859,0,5.174-2.317,5.174-5.176S269.892,3.981,267.033,3.981 M267.033,13.494
	c-2.395,0-4.336-1.941-4.336-4.336s1.94-4.337,4.336-4.337c2.393,0,4.335,1.942,4.335,4.337
	C271.368,11.553,269.426,13.494,267.033,13.494"/>
<path fill="#FFFFFF" d="M265.585,6.702c0.316-0.061,0.773-0.101,1.255-0.101c0.653,0,1.09,0.109,1.404,0.364
	c0.249,0.21,0.392,0.529,0.392,0.92c0,0.59-0.401,0.988-0.83,1.136v0.02c0.329,0.125,0.526,0.443,0.631,0.88
	c0.152,0.568,0.276,1.096,0.359,1.273h-0.848c-0.069-0.135-0.185-0.509-0.306-1.076c-0.136-0.594-0.345-0.786-0.819-0.798h-0.417
	v1.874h-0.821L265.585,6.702L265.585,6.702z M266.407,8.711h0.489c0.566,0,0.911-0.298,0.911-0.751c0-0.493-0.345-0.729-0.886-0.729
	c-0.265,0-0.434,0.02-0.513,0.04v1.44H266.407z"/>
</svg>
