<svg xmlns="http://www.w3.org/2000/svg" xmlns:xlink="http://www.w3.org/1999/xlink" width="25.62" height="41.396" viewBox="0 0 25.62 41.396">
  <defs>
    <clipPath id="clip-path">
      <rect id="Rectangle_73" data-name="Rectangle 73" width="25.62" height="41.396" fill="none"/>
    </clipPath>
  </defs>
  <g id="Group_59" data-name="Group 59" clip-path="url(#clip-path)">
    <path id="Path_1126" data-name="Path 1126" d="M25.62,2.319A2.323,2.323,0,0,0,23.3,0H2.32A2.322,2.322,0,0,0,0,2.319V39.077A2.322,2.322,0,0,0,2.32,41.4H23.3a2.323,2.323,0,0,0,2.322-2.319Zm-.79,36.758a1.532,1.532,0,0,1-1.53,1.529H2.322a1.532,1.532,0,0,1-1.53-1.529v-4.1H24.83Zm0-5.139H.79V6.633H24.829Zm0-28.348H.79V2.319A1.532,1.532,0,0,1,2.32.79H23.3a1.532,1.532,0,0,1,1.53,1.529Z" transform="translate(0 0)" fill="#8d8d8d"/>
    <path id="Path_1127" data-name="Path 1127" d="M15.065,2.9H9.239a.294.294,0,0,0,0,.588h5.832a.294.294,0,0,0,0-.588h-.005" transform="translate(0.66 0.214)" fill="#8d8d8d"/>
    <path id="Path_1128" data-name="Path 1128" d="M8,2.981a.315.315,0,0,0-.41.01.3.3,0,0,0-.081.205.307.307,0,0,0,.087.215.29.29,0,0,0,.2.078A.308.308,0,0,0,8.012,3.4a.3.3,0,0,0,.079-.2A.316.316,0,0,0,8,2.981m-.123.3-.013-.013A.1.1,0,0,0,7.884,3.2a.109.109,0,0,0-.03-.071.111.111,0,0,0-.061-.021.1.1,0,0,0-.068.029A.1.1,0,0,0,7.7,3.2a.1.1,0,0,0,.027.067.106.106,0,0,0,.125,0l.013.014a.1.1,0,0,1-.073.029.108.108,0,0,1-.085-.041A.1.1,0,0,1,7.682,3.2a.107.107,0,0,1,.039-.083.1.1,0,0,1,.071-.031.115.115,0,0,1,.082.039A.106.106,0,0,1,7.9,3.2a.108.108,0,0,1-.031.073Z" transform="translate(0.554 0.215)" fill="#8d8d8d"/>
    <path id="Path_1129" data-name="Path 1129" d="M11.621,34.339a1.012,1.012,0,1,1-1.012,1.011,1.012,1.012,0,0,1,1.012-1.011" transform="translate(0.783 2.534)" fill="#8d8d8d"/>
  </g>
</svg>
