<svg xmlns="http://www.w3.org/2000/svg" xmlns:xlink="http://www.w3.org/1999/xlink" width="46.274" height="40.144" viewBox="0 0 46.274 40.144">
  <defs>
    <clipPath id="clip-path">
      <rect id="Rectangle_72" data-name="Rectangle 72" width="46.274" height="40.144" transform="translate(0 0)" fill="none"/>
    </clipPath>
  </defs>
  <g id="Group_53" data-name="Group 53" transform="translate(0 0)" clip-path="url(#clip-path)">
    <path id="Path_1124" data-name="Path 1124" d="M26.2.05A20.045,20.045,0,0,0,6.184,20.078V22.6L.448,13.965a.213.213,0,0,0-.138-.093.215.215,0,0,0-.164.031.21.21,0,0,0-.091.137.215.215,0,0,0,.031.164L6.163,23.35c.007.01.241.017.249.025l8-7.094a.221.221,0,0,0-.3-.324L6.619,22.729V20.081a19.588,19.588,0,1,1,30,16.59V31.437a2.51,2.51,0,0,0-.706-1.746l-.326-.339-.71-.312-4.414-1.6-.087-1.15v-2l.1-.085c.115-.1.209-.177.294-.256a5.945,5.945,0,0,0,1.873-4.322V18.172l.026-.056a5.866,5.866,0,0,0,.542-2.462l-.779-5.18a.248.248,0,0,0-.248-.248l-7.167-.5a4.794,4.794,0,0,0-4.788,4.788V15.65a5.866,5.866,0,0,0,.542,2.462l.026.056v1.26a6.191,6.191,0,0,0,2.17,4.735l.1.085v2.029L23.012,27.4l-4.531,1.667c-.93.3-1.638,1.6-1.638,1.6l-.02,5.987c0,.021,0,.383.008.637a19.589,19.589,0,0,1-4.468-3.357.214.214,0,0,0-.153-.065.217.217,0,0,0-.155.066.213.213,0,0,0-.008.3l.008.008A20.022,20.022,0,1,0,26.2.05M21.294,19.432V18.115a.255.255,0,0,0-.025-.108,5.376,5.376,0,0,1-.543-2.354V14.518a4.3,4.3,0,0,1,4.293-4.293l6.92.5.779,4.932a5.376,5.376,0,0,1-.543,2.354.255.255,0,0,0-.025.108V19.63a5.375,5.375,0,0,1-1.717,3.961c-.137.128-.28.25-.429.364l-.014.011a5.328,5.328,0,0,1-3.257,1.093q-.184,0-.372-.012A5.541,5.541,0,0,1,21.3,19.432Zm8.585,5.23v3.059L29.3,28.853l-2.573,1.706-2.548-1.536-.611-1.073V24.637l.418.226a5.683,5.683,0,0,0,2.346.677c.133.009.267.013.4.013a5.829,5.829,0,0,0,2.738-.671ZM20.721,38.893a.321.321,0,0,0,0-.062V34.45a.256.256,0,1,0-.5,0v4.293a19.259,19.259,0,0,1-2.91-1.2V31.43a2.028,2.028,0,0,1,1.331-1.9l4.324-1.567.885,1.442c.136.2,2.613,1.709,2.613,1.709V36.65a.25.25,0,0,0,.5,0V31.116s2.477-1.5,2.613-1.709l.863-1.367,4.346,1.491a2.028,2.028,0,0,1,1.331,1.9v5.536a19.5,19.5,0,0,1-2.834,1.377V34.429a.252.252,0,1,0-.5-.063.221.221,0,0,0,0,.063v4.1a19.666,19.666,0,0,1-12.071.363Z" fill="#8d8d8d"/>
    <path id="Path_1125" data-name="Path 1125" d="M26.2.05A20.045,20.045,0,0,0,6.184,20.078V22.6L.448,13.965a.213.213,0,0,0-.138-.093.215.215,0,0,0-.164.031.21.21,0,0,0-.091.137.215.215,0,0,0,.031.164L6.163,23.35c.007.01.241.017.249.025l8-7.094a.221.221,0,0,0-.3-.324L6.619,22.729V20.081a19.588,19.588,0,1,1,30,16.59V31.437a2.51,2.51,0,0,0-.706-1.746l-.326-.339-.71-.312-4.414-1.6-.087-1.15v-2l.1-.085c.115-.1.209-.177.294-.256a5.945,5.945,0,0,0,1.873-4.322V18.172l.026-.056a5.866,5.866,0,0,0,.542-2.462l-.779-5.18a.248.248,0,0,0-.248-.248l-7.167-.5a4.794,4.794,0,0,0-4.788,4.788V15.65a5.866,5.866,0,0,0,.542,2.462l.026.056v1.26a6.191,6.191,0,0,0,2.17,4.735l.1.085v2.029L23.012,27.4l-4.531,1.667c-.93.3-1.638,1.6-1.638,1.6l-.02,5.987c0,.021,0,.383.008.637a19.589,19.589,0,0,1-4.468-3.357.214.214,0,0,0-.153-.065.217.217,0,0,0-.155.066.213.213,0,0,0-.008.3l.008.008A20.022,20.022,0,1,0,26.2.05ZM21.294,19.432V18.115a.255.255,0,0,0-.025-.108,5.376,5.376,0,0,1-.543-2.354V14.518a4.3,4.3,0,0,1,4.293-4.293l6.92.5.779,4.932a5.376,5.376,0,0,1-.543,2.354.255.255,0,0,0-.025.108V19.63a5.375,5.375,0,0,1-1.717,3.961c-.137.128-.28.25-.429.364l-.014.011a5.328,5.328,0,0,1-3.257,1.093q-.184,0-.372-.012A5.541,5.541,0,0,1,21.3,19.432Zm8.585,5.23v3.059L29.3,28.853l-2.573,1.706-2.548-1.536-.611-1.073V24.637l.418.226a5.683,5.683,0,0,0,2.346.677c.133.009.267.013.4.013a5.829,5.829,0,0,0,2.738-.671ZM20.721,38.893a.321.321,0,0,0,0-.062V34.45a.256.256,0,1,0-.5,0v4.293a19.259,19.259,0,0,1-2.91-1.2V31.43a2.028,2.028,0,0,1,1.331-1.9l4.324-1.567.885,1.442c.136.2,2.613,1.709,2.613,1.709V36.65a.25.25,0,0,0,.5,0V31.116s2.477-1.5,2.613-1.709l.863-1.367,4.346,1.491a2.028,2.028,0,0,1,1.331,1.9v5.536a19.5,19.5,0,0,1-2.834,1.377V34.429a.252.252,0,1,0-.5-.063.221.221,0,0,0,0,.063v4.1a19.666,19.666,0,0,1-12.071.363Z" fill="none" stroke="#8d8d8d" stroke-width="0.1"/>
  </g>
</svg>
