<svg xmlns="http://www.w3.org/2000/svg" xmlns:xlink="http://www.w3.org/1999/xlink" width="52.06" height="38.01" viewBox="0 0 52.06 38.01">
  <defs>
    <clipPath id="clip-path">
      <rect id="Rectangle_69" data-name="Rectangle 69" width="52.06" height="38.01" transform="translate(0 0)" fill="none"/>
    </clipPath>
  </defs>
  <g id="Group_47" data-name="Group 47" transform="translate(0 0)" clip-path="url(#clip-path)">
    <path id="Path_1116" data-name="Path 1116" d="M51.7,38.009a.362.362,0,0,0,.362-.362V31.238A2.86,2.86,0,0,0,49.995,28.5l-3.2-.914a.74.74,0,0,1-.534-.708V25.594l.178-.123a5.389,5.389,0,0,0,.688-.564,5.289,5.289,0,0,0,1.619-3.827V19.509L49.1,18.8a4.528,4.528,0,0,0,.475-2.014l-1.033-3.373a.362.362,0,0,0-.362-.362l-6.422-.62a4.509,4.509,0,0,0-4.5,4.5v.046a3.7,3.7,0,0,0,.388,1.643l.44.881v1.363A5.63,5.63,0,0,0,40.4,25.42l.171.124v1.33c0,.518-.355.657-.94.824l-1.69.483L33,26.381l.024-.312a.361.361,0,0,0-.1-.277L31.37,24.156V21.251l.15-.124c.168-.139.3-.258.429-.374a8.679,8.679,0,0,0,2.734-6.309V12.321l.038-.082a8.53,8.53,0,0,0,.791-3.594l-1.136-7.56a.362.362,0,0,0-.362-.362L23.553,0a7,7,0,0,0-6.988,6.989V8.646a8.556,8.556,0,0,0,.791,3.593l.038.082V14.16a9.039,9.039,0,0,0,3.168,6.91l.146.124v2.962l-1.557,1.636a.364.364,0,0,0-.1.277l.024.313-5.061,1.84a3.658,3.658,0,0,0-.86.451l-.2.143-1.761-.88L12,27.583a5.6,5.6,0,0,0,2.763-2.208.36.36,0,0,0,0-.323c-.6-1.2-.668-3.3-.724-4.981-.018-.543-.035-1.055-.067-1.51a6.33,6.33,0,0,0-6.159-6.135,6.33,6.33,0,0,0-6.159,6.135c-.032.456-.049.968-.067,1.51-.056,1.685-.125,3.782-.724,4.981a.367.367,0,0,0,0,.323,5.6,5.6,0,0,0,2.766,2.206l.811.353-2.87,1.435A2.832,2.832,0,0,0,0,31.915v5.724a.362.362,0,0,0,.724,0V31.915a2.114,2.114,0,0,1,1.174-1.9l2.848-1.424,1.111,1.056a2.845,2.845,0,0,0,3.922,0l1.111-1.055,1.51.755-.241.385a3.672,3.672,0,0,0-.56,1.944v5.963a.362.362,0,0,0,.724,0V31.676A2.962,2.962,0,0,1,14.266,28.9L19.6,26.964l2.272,3.408a1.19,1.19,0,0,0,1.832.181l1.982-1.982v9.068a.362.362,0,0,0,.724,0V28.571l1.982,1.982a1.19,1.19,0,0,0,1.832-.181l2.272-3.408L37.824,28.9a2.961,2.961,0,0,1,1.943,2.774V37.64a.362.362,0,0,0,.724,0V31.677a3.66,3.66,0,0,0-1.031-2.548l-.476-.5.852-.243a3.868,3.868,0,0,0,.652-.234l.265-.13,2.308,2.308v7.306a.362.362,0,0,0,.724,0V30.345l2.3-2.3.268.136a1.467,1.467,0,0,0,.255.1l3.2.914a2.132,2.132,0,0,1,1.54,2.042v6.409a.362.362,0,0,0,.35.363M2.31,20.1c.016-.508.033-1.034.065-1.483a6.164,6.164,0,0,1,1.682-3.871,5.227,5.227,0,0,1,7.512,0,6.164,6.164,0,0,1,1.682,3.871c.031.444.049.972.066,1.483l.055,1.625-.81-1.248a6.516,6.516,0,0,0-3.607-2.628,9.339,9.339,0,0,0-2.81-.447.36.36,0,0,0-.249.11l-1.4,1.45a.361.361,0,1,0,.52.5l1.293-1.341.187.009c1.026.05,4.48.445,5.834,3.425l.051.112-.019.122A4.608,4.608,0,0,1,3.2,21.079a.362.362,0,0,0-.362-.362.288.288,0,0,0-.059.006l-.5.084Zm2.657,7.22-.553-.2A5.99,5.99,0,0,1,1.747,25.4L1.6,25.214l.086-.224A8.034,8.034,0,0,0,2.1,23.226l.208-1.5.582,1.4a5.348,5.348,0,0,0,1.9,2.342l.178.123Zm4.31,1.808a2.122,2.122,0,0,1-2.926,0l-.948-.9.148-.277a1.2,1.2,0,0,0,.14-.562V26l.536.168a5.37,5.37,0,0,0,3.175,0l.536-.166v1.386a1.2,1.2,0,0,0,.14.562l.148.278Zm1.384-1.806V25.6l.179-.123a5.294,5.294,0,0,0,1.9-2.343l.581-1.4.209,1.5a8.056,8.056,0,0,0,.418,1.76l.086.224-.152.186a6,6,0,0,1-2.666,1.725Zm7.456-13.157V12.245a.357.357,0,0,0-.036-.157,7.849,7.849,0,0,1-.792-3.436V6.995A6.273,6.273,0,0,1,23.554.73l10.1.723,1.136,7.2A7.835,7.835,0,0,1,34,12.088a.357.357,0,0,0-.036.157v2.206a7.849,7.849,0,0,1-2.5,5.781,8.141,8.141,0,0,1-.627.531l-.021.016a7.777,7.777,0,0,1-4.754,1.6q-.27,0-.543-.018a8.088,8.088,0,0,1-7.4-8.192Zm5.069,15.88a.465.465,0,0,1-.33.138h-.049a.465.465,0,0,1-.342-.208l-2.591-3.886,1.245-1.309,4.357,2.978Zm2.854-2.78-4.609-3.15V21.761l.61.33a8.28,8.28,0,0,0,3.424.989c.194.013.39.019.583.019a8.51,8.51,0,0,0,4-.979l.6-.318v2.317Zm3.574,2.71a.463.463,0,0,1-.338.206h-.053a.464.464,0,0,1-.326-.135L26.6,27.756l4.357-2.978,1.245,1.309Zm13.8-.3L41.2,27.467l.049-.221a1.712,1.712,0,0,0,.038-.371v-.9l.542.178a5.031,5.031,0,0,0,1.418.251h.166A5.364,5.364,0,0,0,45,26.164L45.538,26v.873a1.437,1.437,0,0,0,.044.351l.057.227Zm0-3.992h-.147A4.753,4.753,0,0,1,38.8,20.871V19.423a.36.36,0,0,0-.038-.161l-.479-.958a2.965,2.965,0,0,1-.312-1.32v-.046a3.785,3.785,0,0,1,3.78-3.78l6.061.62,1.033,3.011a3.8,3.8,0,0,1-.4,1.691l-.391.782a.364.364,0,0,0-.038.162v1.657a4.608,4.608,0,0,1-4.6,4.608Z" fill="#8d8d8d"/>
    <path id="Path_1117" data-name="Path 1117" d="M48.746,37.648v-4.97a.362.362,0,0,0-.724,0v4.97a.362.362,0,0,0,.724,0" fill="#8d8d8d"/>
    <path id="Path_1118" data-name="Path 1118" d="M4.034,37.648V33.7a.362.362,0,0,0-.724,0v3.946a.362.362,0,0,0,.724,0" fill="#8d8d8d"/>
    <path id="Path_1119" data-name="Path 1119" d="M16.927,33.972a.362.362,0,0,0-.362.362v3.314a.362.362,0,0,0,.724,0V34.334a.362.362,0,0,0-.362-.362" fill="#8d8d8d"/>
    <path id="Path_1120" data-name="Path 1120" d="M35.511,37.647V34.333a.362.362,0,0,0-.724,0v3.314a.362.362,0,0,0,.724,0" fill="#8d8d8d"/>
  </g>
</svg>
