<svg id="Group_50" data-name="Group 50" xmlns="http://www.w3.org/2000/svg" xmlns:xlink="http://www.w3.org/1999/xlink" width="31.609" height="44.12" viewBox="0 0 31.609 44.12">
  <defs>
    <clipPath id="clip-path">
      <rect id="Rectangle_70" data-name="Rectangle 70" width="31.609" height="44.12" transform="translate(0 0)" fill="none"/>
    </clipPath>
  </defs>
  <g id="Group_49" data-name="Group 49" clip-path="url(#clip-path)">
    <path id="Path_1121" data-name="Path 1121" d="M30.883,1.867h0a24.266,24.266,0,0,0-8.13-1.5A14.474,14.474,0,0,0,15.9,1.922,14.08,14.08,0,0,1,9.369,3.207,38.246,38.246,0,0,1,.836,2.1V.028h-.4L.418,0V.028H0V44.12H.835V26.6a39.676,39.676,0,0,0,8.533,1.041,16.316,16.316,0,0,0,7.616-1.555A12.192,12.192,0,0,1,22.752,24.8a22.152,22.152,0,0,1,7.273,1.337,1.156,1.156,0,0,0,1.584-1.072V2.939a1.15,1.15,0,0,0-.726-1.072m-.109,23.2a.321.321,0,0,1-.442.3,23.075,23.075,0,0,0-7.58-1.4,13.027,13.027,0,0,0-6.159,1.383A15.511,15.511,0,0,1,9.368,26.8,38.938,38.938,0,0,1,.835,25.739V2.955A38.954,38.954,0,0,0,9.368,4.039a14.872,14.872,0,0,0,6.925-1.383A13.653,13.653,0,0,1,22.752,1.2a23.337,23.337,0,0,1,7.821,1.443.318.318,0,0,1,.2.3Z" fill="#8d8d8d"/>
  </g>
</svg>
