<svg xmlns="http://www.w3.org/2000/svg" xmlns:xlink="http://www.w3.org/1999/xlink" width="44.324" height="33.8" viewBox="0 0 44.324 33.8">
  <defs>
    <clipPath id="clip-path">
      <rect id="Rectangle_74" data-name="Rectangle 74" width="44.324" height="33.8" transform="translate(0 0)" fill="none"/>
    </clipPath>
  </defs>
  <g id="Group_62" data-name="Group 62" transform="translate(0 0)">
    <g id="Group_61" data-name="Group 61" clip-path="url(#clip-path)">
      <path id="Path_1130" data-name="Path 1130" d="M39.215.605A2.041,2.041,0,0,0,37.728.052h-.007C30.393.07,22.943.067,15.739.064H6.948c-1.722,0-3.5,0-5.252.021A1.6,1.6,0,0,0,.318.91,3.9,3.9,0,0,0,.107,1.3L.05,1.419v24.9c.026.056.051.112.076.168a2.885,2.885,0,0,0,.236.455,1.851,1.851,0,0,0,1.643.791H15.072l-.693,5.476H13.287a.559.559,0,0,0-.385.122.2.2,0,0,0-.053.153c0,.072.006.262.411.264,1.1,0,2.232,0,3.474,0,.4,0,.4-.148.406-.254a.226.226,0,0,0-.051-.18.545.545,0,0,0-.364-.1H14.94l.684-5.476h1a1.687,1.687,0,0,0,.246-.009c.18-.028.271-.12.27-.274,0-.077,0-.221-.268-.253a3.619,3.619,0,0,0-.429-.016H2.035C.844,27.179.624,26.451.6,26.017.566,25.474.573,24.944.58,24.382c0-.236.006-.474.006-.717v-.44H16.507a2.087,2.087,0,0,0,.432-.04c.149-.032.193-.083.2-.229.006-.183-.054-.228-.189-.259a2.376,2.376,0,0,0-.512-.041H.58V2.152A1.6,1.6,0,0,1,.959.981,1.638,1.638,0,0,1,2.141.615H37.509a1.81,1.81,0,0,1,1.344.357,1.762,1.762,0,0,1,.363,1.335L39.209,16.4v.107c0,.118,0,1.868.009,1.968.036.339.219.335.28.335.2,0,.26-.192.274-.35v-5.9c0-3.414-.007-6.944.014-10.417A2.119,2.119,0,0,0,39.215.605" fill="#8d8d8d"/>
      <path id="Path_1131" data-name="Path 1131" d="M39.215.605A2.041,2.041,0,0,0,37.728.052h-.007C30.393.07,22.943.067,15.739.064H6.948c-1.722,0-3.5,0-5.252.021A1.6,1.6,0,0,0,.318.91,3.9,3.9,0,0,0,.107,1.3L.05,1.419v24.9c.026.056.051.112.076.168a2.885,2.885,0,0,0,.236.455,1.851,1.851,0,0,0,1.643.791H15.072l-.693,5.476H13.287a.559.559,0,0,0-.385.122.2.2,0,0,0-.053.153c0,.072.006.262.411.264,1.1,0,2.232,0,3.474,0,.4,0,.4-.148.406-.254a.226.226,0,0,0-.051-.18.545.545,0,0,0-.364-.1H14.94l.684-5.476h1a1.687,1.687,0,0,0,.246-.009c.18-.028.271-.12.27-.274,0-.077,0-.221-.268-.253a3.619,3.619,0,0,0-.429-.016H2.035C.844,27.179.624,26.451.6,26.017.566,25.474.573,24.944.58,24.382c0-.236.006-.474.006-.717v-.44H16.507a2.087,2.087,0,0,0,.432-.04c.149-.032.193-.083.2-.229.006-.183-.054-.228-.189-.259a2.376,2.376,0,0,0-.512-.041H.58V2.152A1.6,1.6,0,0,1,.959.981,1.638,1.638,0,0,1,2.141.615H37.509a1.81,1.81,0,0,1,1.344.357,1.762,1.762,0,0,1,.363,1.335L39.209,16.4v.107c0,.118,0,1.868.009,1.968.036.339.219.335.28.335.2,0,.26-.192.274-.35v-5.9c0-3.414-.007-6.944.014-10.417A2.119,2.119,0,0,0,39.215.605Z" fill="none" stroke="#8d8d8d" stroke-width="0.1"/>
      <path id="Path_1132" data-name="Path 1132" d="M44.274,32.394V21.055l-.014-.031c-.036-.08-.072-.159-.107-.239a1.664,1.664,0,0,0-1.532-1.122c-.77-.021-1.556-.031-2.371-.031-.76,0-1.544.009-2.363.027a1.679,1.679,0,0,0-1.644,1.526,11.8,11.8,0,0,0-.052,1.407v.254c0,2.83-.008,5.866,0,8.893a1.811,1.811,0,0,0,1.6,2,1.882,1.882,0,0,0,.4,0h.3c1.342.005,2.729-.015,4.091-.015.811,0,1.7-.588,1.7-1.33M36.827,21.163a1.863,1.863,0,0,1,.693-.825,1.16,1.16,0,0,1,.717-.153h3.786a1.816,1.816,0,0,1,1.363.383,1.78,1.78,0,0,1,.362,1.348,1.613,1.613,0,0,1-.007.173.8.8,0,0,1-.006.114l-.02.419H36.782v-.441c0-.079-.006-.163-.012-.252A1.853,1.853,0,0,1,36.827,21.163Zm6.9,9.012H36.791V23.243h6.936ZM42.466,33.2c-.718.006-1.406.009-2.072.009-.821,0-1.607,0-2.374-.013a1.208,1.208,0,0,1-1.249-1.166c0-.033,0-.065,0-.1-.007-.169-.005-.331,0-.5v-.677h6.969V31.2c0,.081,0,.161,0,.242a3.923,3.923,0,0,1-.015.632,1.207,1.207,0,0,1-1.27,1.13Z" fill="#8d8d8d"/>
      <path id="Path_1133" data-name="Path 1133" d="M44.274,32.394V21.055l-.014-.031c-.036-.08-.072-.159-.107-.239a1.664,1.664,0,0,0-1.532-1.122c-.77-.021-1.556-.031-2.371-.031-.76,0-1.544.009-2.363.027a1.679,1.679,0,0,0-1.644,1.526,11.8,11.8,0,0,0-.052,1.407v.254c0,2.83-.008,5.866,0,8.893a1.811,1.811,0,0,0,1.6,2,1.882,1.882,0,0,0,.4,0h.3c1.342.005,2.729-.015,4.091-.015C43.388,33.728,44.274,33.136,44.274,32.394ZM36.827,21.163a1.863,1.863,0,0,1,.693-.825,1.16,1.16,0,0,1,.717-.153h3.786a1.816,1.816,0,0,1,1.363.383,1.78,1.78,0,0,1,.362,1.348,1.613,1.613,0,0,1-.007.173.8.8,0,0,1-.006.114l-.02.419H36.782v-.441c0-.079-.006-.163-.012-.252A1.853,1.853,0,0,1,36.827,21.163Zm6.9,9.012H36.791V23.243h6.936ZM42.466,33.2c-.718.006-1.406.009-2.072.009-.821,0-1.607,0-2.374-.013a1.208,1.208,0,0,1-1.249-1.166c0-.033,0-.065,0-.1-.007-.169-.005-.331,0-.5v-.677h6.969V31.2c0,.081,0,.161,0,.242a3.923,3.923,0,0,1-.015.632,1.207,1.207,0,0,1-1.27,1.13Z" fill="none" stroke="#8d8d8d" stroke-width="0.1"/>
      <path id="Path_1134" data-name="Path 1134" d="M33.731,15.63c0-1.277-.645-1.985-1.806-1.993-1.717-.012-3.453-.019-5.232-.019-1.7,0-3.44.006-5.243.017a1.734,1.734,0,0,0-1.825,1.638,1.778,1.778,0,0,0,0,.219c-.013,5.416-.013,10.927,0,16.38a1.772,1.772,0,0,0,1.664,1.874,1.858,1.858,0,0,0,.236,0c3.362.005,6.772,0,10.26,0a2.472,2.472,0,0,0,.588-.053,1.771,1.771,0,0,0,1.356-1.942V21.275c0-1.853.01-3.765,0-5.645m-.546,16.126a1.281,1.281,0,0,1-1.454,1.449H21.784a1.339,1.339,0,0,1-1.6-1.615c0-.084,0-.168.01-.262a.938.938,0,0,1,.007-.137l.018-.421H33.185V31.4c0,.124,0,.243,0,.361ZM20.224,30.173V17.2H33.15V30.173ZM33.149,16.221l-.045.39H20.184V15.546a1.267,1.267,0,0,1,1.42-1.378h3.059c2.2,0,4.472.008,6.706-.015a1.525,1.525,0,0,1,1.779,2.064Z" fill="#8d8d8d"/>
      <path id="Path_1135" data-name="Path 1135" d="M33.731,15.63c0-1.277-.645-1.985-1.806-1.993-1.717-.012-3.453-.019-5.232-.019-1.7,0-3.44.006-5.243.017a1.734,1.734,0,0,0-1.825,1.638,1.778,1.778,0,0,0,0,.219c-.013,5.416-.013,10.927,0,16.38a1.772,1.772,0,0,0,1.664,1.874,1.858,1.858,0,0,0,.236,0c3.362.005,6.772,0,10.26,0a2.472,2.472,0,0,0,.588-.053,1.771,1.771,0,0,0,1.356-1.942V21.275C33.735,19.422,33.741,17.51,33.731,15.63Zm-.546,16.126a1.281,1.281,0,0,1-1.454,1.449H21.784a1.339,1.339,0,0,1-1.6-1.615c0-.084,0-.168.01-.262a.938.938,0,0,1,.007-.137l.018-.421H33.185V31.4c0,.124,0,.243,0,.361ZM20.224,30.173V17.2H33.15V30.173ZM33.149,16.221l-.045.39H20.184V15.546a1.267,1.267,0,0,1,1.42-1.378h3.059c2.2,0,4.472.008,6.706-.015a1.525,1.525,0,0,1,1.779,2.064Z" fill="none" stroke="#8d8d8d" stroke-width="0.1"/>
    </g>
  </g>
</svg>
