<svg xmlns="http://www.w3.org/2000/svg" xmlns:xlink="http://www.w3.org/1999/xlink" width="38.831" height="38.82" viewBox="0 0 38.831 38.82">
  <defs>
    <clipPath id="clip-path">
      <rect id="Rectangle_59" data-name="Rectangle 59" width="38.831" height="38.82" transform="translate(0 0)" fill="none"/>
    </clipPath>
  </defs>
  <g id="Group_29" data-name="Group 29" transform="translate(0 0)" clip-path="url(#clip-path)">
    <path id="Path_1114" data-name="Path 1114" d="M33.144,33.139A19.41,19.41,0,1,0,1.58,11.768l-.066.154-.052.017L1.483,12l-.051.127A19.4,19.4,0,0,0,19.411,38.82h.017a19.284,19.284,0,0,0,13.716-5.681m2.981-22.4a18.8,18.8,0,0,1-.874,18.849L35,29.974l-1.449-1.448V26.008a.293.293,0,0,0-.029-.133l-2.609-5.21v-2.57a.29.29,0,0,0-.128-.24l-1.978-1.319a.29.29,0,0,0-.231-.04l-2.545.636-4.376-1.878-.615-4.312,1.791-1.791h3.683L27.747,11a.288.288,0,0,0,.192.124l3.957.659a.281.281,0,0,0,.138-.011l3.945-1.315ZM28.1,2.708A18.911,18.911,0,0,1,32.48,5.86l.331.32L31.228,7.236,28.044,6.6,26.1,5.95a.281.281,0,0,0-.16-.007l-2.558.639L21.8,6.055l1.09-2.181h2.458a.288.288,0,0,0,.129-.03l2.451-1.225ZM2.151,11.9a18.875,18.875,0,0,1,9.9-9.818L12.236,2,13.98,3.168a.3.3,0,0,0,.112.044l3.625.6-.508,1.521-1.841.614a.292.292,0,0,0-.156.125L13.271,9.307l-3.186,1.911-4.558.651a.289.289,0,0,0-.249.285v1.978a.285.285,0,0,0,.085.2L6.6,15.566v1.98L3.171,15.262l-1.08-3.241Zm8.093,12.506-3.157-.632-1.228-2.45V19.533L8.789,16.6l1.139,2.28a.288.288,0,0,0,.258.16h4.453L16.533,22.2a.288.288,0,0,0,.247.14h2.285l-.572,2.866-2.576,2.572a.289.289,0,0,0-.085.2v1.833L13.31,31.7a.291.291,0,0,0-.115.231v2.9l-1.472-.487-1.248-3.123V24.686a.289.289,0,0,0-.231-.282Zm9.13,13.841A18.836,18.836,0,0,1,1.513,25.254a18.735,18.735,0,0,1-.107-11.34L1.745,12.8l.915,2.745a.289.289,0,0,0,.113.149l3.663,2.442-1.069,1.07a.289.289,0,0,0-.085.2v1.978a.288.288,0,0,0,.03.129l1.319,2.637a.284.284,0,0,0,.2.153l3.068.613v6.358a.28.28,0,0,0,.021.107l1.319,3.3a.288.288,0,0,0,.177.166l1.979.66a.273.273,0,0,0,.089.015.288.288,0,0,0,.287-.289V32.083l2.522-1.892a.291.291,0,0,0,.115-.231V28.1l2.553-2.553a.287.287,0,0,0,.079-.147l.659-3.3a.289.289,0,0,0-.226-.339.26.26,0,0,0-.056-.006H16.943L15.049,18.6a.288.288,0,0,0-.247-.14H10.364L9.129,15.981a.29.29,0,0,0-.212-.155.279.279,0,0,0-.248.078L7.18,17.394V15.455a.289.289,0,0,0-.085-.2L5.861,14.021V12.412l4.369-.624a.292.292,0,0,0,.107-.038l3.3-1.978a.3.3,0,0,0,.1-.1l1.917-3.2,1.877-.626a.283.283,0,0,0,.182-.181l.66-1.98a.289.289,0,0,0-.184-.364.3.3,0,0,0-.043-.011l-3.894-.649-1.374-.916.728-.237a18.8,18.8,0,0,1,12.937.481l.756.31-2.019,1H22.715a.289.289,0,0,0-.262.16L21.134,6.095a.289.289,0,0,0,.13.386A.254.254,0,0,0,21.3,6.5l1.978.659a.278.278,0,0,0,.159.007L26,6.524l1.9.632.027.008,3.3.661a.289.289,0,0,0,.216-.042L33.209,6.6l.215.239a19.008,19.008,0,0,1,2.023,2.7l.246.4L31.917,11.2l-3.762-.627L26.905,8.7a.287.287,0,0,0-.239-.128H22.715a.288.288,0,0,0-.2.084l-1.978,1.978a.289.289,0,0,0-.082.245l.659,4.616a.288.288,0,0,0,.173.223L25.9,17.7a.284.284,0,0,0,.182.015l2.515-.629,1.741,1.163v2.483a.293.293,0,0,0,.029.133l2.609,5.21v2.57a.285.285,0,0,0,.085.2l1.607,1.608-.193.257a18.7,18.7,0,0,1-12.4,7.341,19.134,19.134,0,0,1-2.7.2Z" fill="#8d8d8d"/>
  </g>
</svg>
