<svg xmlns="http://www.w3.org/2000/svg" width="29.992" height="29.848" viewBox="0 0 29.992 29.848">
  <g id="GuqYfF.tif" transform="translate(563.689 -34.595)">
    <g id="Group_1" data-name="Group 1" transform="translate(-563.689 34.595)">
      <path id="Path_1" data-name="Path 1" d="M-440.237,35.537l-.784.276c.082.264.138.53.549.413-.147.291-.368.547-.123.864.023.029-.074.21-.148.24a1.311,1.311,0,0,1-.4.037l-.011-.115.359-.085-.249-.46c-.12.192-.188.313-.268.425a.457.457,0,0,1-.152.135c-.417.22-.844.04-1.161-.582.455.408.781.171,1.122-.063l-.27-.365.512-.557-.05-.1-.767.318c-.291-.17-.624-.512-.973-.529a2.877,2.877,0,0,0-1.144.428c-.072.032-.1.158-.21.337l.818-.255-.107.334.5.071-.653.14.3.478.653-.046-.032.313c-.1-.018-.191-.038-.287-.054-.125-.02-.251-.043-.377-.052s-.253,0-.471,0l.387-.26a4.158,4.158,0,0,1-1.13-.312c-.536-.344-.981-.042-1.462.065a.773.773,0,0,1-.283.021,11.162,11.162,0,0,1-1.287-.275,14.35,14.35,0,0,1,9.492-1.5l-.053.082.337.412-.261.118.124.266-.908-.528.167.5-.079.078c.468.122.935.246,1.4.361a.2.2,0,0,0,.157-.058c.357-.377.827-.353,1.312-.428-.029.488.241.644.617.737a1.208,1.208,0,0,1,1.068,1.211c0,.14.2.274.313.409l-.261.142.01.093.525.154c-.006.04,0,.077-.015.083-.5.257-.394.671-.252,1.069.127.359.295.7.455,1.051a.449.449,0,0,0,.17.176c.2.121.4.229.634.362.107-.286.232-.6.345-.923.07-.2.151-.357.409-.273a.225.225,0,0,0,.174-.01,1.3,1.3,0,0,1,1.055-.29.467.467,0,0,0,.14-.313c-.039-.226-.14-.442-.174-.683a12.048,12.048,0,0,1,2.991,3.95c.194.459.455.891.641,1.353a1.1,1.1,0,0,1-.394,1.378l.366,1c-.1.064-.125.09-.141.087-.543-.125-.576-.1-.518.452a1.694,1.694,0,0,0,.077.565c.1.195.266.455.441.487.263.049.336-.235.366-.475a3.271,3.271,0,0,1,.114-.631c.036-.108.165-.186.3-.325a4.574,4.574,0,0,1,.5,2.162l-.113.021c-.021-.138-.044-.275-.062-.414-.048-.367-.252-.465-.568-.289-.126.07-.3.064-.413.147-.151.111-.358.263-.378.418-.11.851-.839,1.43-.973,2.246a8.624,8.624,0,0,0-.121,2,1.977,1.977,0,0,0,.793,1.29l1.046-.6a2.6,2.6,0,0,1,.008.593,11.533,11.533,0,0,1-2.8,5.184,14.65,14.65,0,0,1-7.845,4.7,1.663,1.663,0,0,1-.774-.023l.269-.239-.129-.109c.273-.26.534-.533.824-.77.1-.08.278-.051.411-.1.231-.079.461-.174.373-.474a2.8,2.8,0,0,0,1.677-1.528.643.643,0,0,1,.241-.245c.225-.136.467-.243.694-.375a1.663,1.663,0,0,0,.841-1.072,2.616,2.616,0,0,1,.773-1.348,1.282,1.282,0,0,0,.223-.28.446.446,0,0,0-.174-.693.779.779,0,0,0-.218-.121c-.7-.177-1.41-.352-2.119-.514-.087-.02-.193.043-.29.067a.884.884,0,0,0-.613-1.254,3.148,3.148,0,0,1-1.76-.931.7.7,0,0,0-.43-.085c-.445,0-.923.17-1.223-.342l-.4.305.036-.316a1.91,1.91,0,0,0-1.3.891.735.735,0,0,0-.83-.2.545.545,0,0,1-.67-.613,1.372,1.372,0,0,1,.03-.14c.165-.725.095-.813-.645-.808-.163,0-.326,0-.529,0l.5-1.334c-.607-.116-.751-.054-1.031.411a.786.786,0,0,1-1.161.08,1.864,1.864,0,0,1-.3-.782,2.945,2.945,0,0,1,.068-.783,1.113,1.113,0,0,1,1.568-1.021c.112.034.227.062.342.093.047-.375.393-.536.791-.379.022.009.04.031.062.035a.956.956,0,0,1,.816.945,1.647,1.647,0,0,0,.2.434l.114,0a1.858,1.858,0,0,0,.139-.47,1.965,1.965,0,0,0-.1-.524c-.153-.6-.1-.741.408-1.079.229-.152.46-.3.673-.478a.609.609,0,0,0,.243-.335c.042-.5.432-.812.636-1.223a.616.616,0,0,1,.3-.226c.194-.088.4-.149.6-.219-.062-.542.22-.772,1.065-.9l-.047.334a1.675,1.675,0,0,0,.331-.062c.277-.111.552-.23.818-.366.065-.033.092-.142.1-.24-.606.264-.869.085-.865-.557a.373.373,0,0,0-.23-.267,1.478,1.478,0,0,0-.479.043,1.139,1.139,0,0,1,1.044-.334,1.016,1.016,0,0,0,1.044-.137c.045-.043.156-.016.3-.026l-.67.971,1.16.433c.18-.34.008-.638-.532-.93a4.316,4.316,0,0,1,.137-.568c.155-.405-.089-.642-.352-.855a1.108,1.108,0,0,1-.518-.876,3.676,3.676,0,0,0-.33-.98,1.948,1.948,0,0,1-.293.34c-.117.084-.319.2-.393.158-.131-.08-.3-.3-.268-.413.14-.5-.245-.655-.526-.855a3.409,3.409,0,0,0-.684-.294l-.425,1.182-.1-.019c.028.064.057.127.084.191.193.447.126.676-.332.847a.443.443,0,0,0-.343.551c.029.24.056.516-.274.631a.734.734,0,0,1-.268-.8c.068-.265-.031-.374-.262-.484-.3-.142-.564-.354-.851-.522-.172-.1-.359-.176-.534-.26l-.251-.7c.343-.935,1.379-1.093,2.232-1.577-.019.234-.311.441,0,.543h.871l-.636-.793a2.592,2.592,0,0,0,.874-.225c.153-.106.151-.437.227-.7.3.021.675-.081.845.362.008.021.033.035.046.054.114.169.537.2.345.477s-.409.617-.87.479c-.1-.03-.233.053-.351.085v.119a2.626,2.626,0,0,1,.412.054.838.838,0,0,1,.423.189,1.948,1.948,0,0,0,1.072.805l-.271-.527.479.276a.42.42,0,0,0-.012-.607,1.376,1.376,0,0,1-.142-.388l.1-.041.418.46.506-.377-.893-.742c.3-.2.235-.375-.006-.575-.323-.267-.737-.445-.856-.926-.027-.108-.283-.159-.5-.273l.1.375-.105.041-.136-.356a2.414,2.414,0,0,0-.736-.186,1.116,1.116,0,0,0-.684.3c-.26.268-.129.465.444.671l-.753.673V37.04l-.3.08c.022-.31-.047-.65.088-.856s.477-.291.723-.425c-.3-.3-.591-.225-.962.23-.008-.165-.018-.353-.027-.541l.663-.048-.013-.131-.724-.075Zm12.264,9.361h.46l-.8-1.8-.111.04.129.57c-.259.048-.3.5-.078.818l.284-.149Zm-12.238,6.782.033-.117a4.569,4.569,0,0,0-1.791-.744c-.186-.006-.378.156-.567.24l.028.111a1.6,1.6,0,0,1,1.659.481l-.026.095Zm-2.307-16.608a1.634,1.634,0,0,0,1.866.231c-.2-.043-.344-.118-.456-.087-.331.091-.439.042-.5-.306Zm2.447,17.063,1.243-.079.022-.172-.988-.314.023.134Zm9.613-11.648-.051.072c.023.1.016.222.074.291a3.146,3.146,0,0,0,.487.467.261.261,0,0,0,.25-.053.249.249,0,0,0-.022-.247C-429.956,40.829-430.211,40.663-430.459,40.488Z" transform="translate(456.163 -34.595)" fill="#e82828"/>
      <path id="Path_2" data-name="Path 2" d="M-555.687,102.242c-.164-.789-.581-1.495-.746-2.277l.106-.039c.056.087.115.171.167.261.38.663.774,1.319,1.129,2a4.043,4.043,0,0,1,.182.735c.037.126.089.294.187.35.528.3,1.073.572,1.613.852.031.016.077.038.1.027.468-.216.736.127,1.065.349a7.033,7.033,0,0,0,.662.26c.2.108.468.227.555.412a1.659,1.659,0,0,0,1.339.887l.291-.308a1.065,1.065,0,0,1-.031,1.7c-.353.308-.438.674-.218.936-.4.431-.385.447.032.882a2.889,2.889,0,0,1,.487.7,2.275,2.275,0,0,0,1.212,1.164.71.71,0,0,1,.478.818c-.052.584-.047,1.174-.107,1.757-.037.361-.158.712-.221,1.071-.012.068.073.152.113.229l.106-.033-.228.424.452.372c-.18.034-.311.071-.444.083a14.559,14.559,0,0,1-10.75-3.241,14.376,14.376,0,0,1-5.423-9.938,14.256,14.256,0,0,1,3.93-11.755,7.789,7.789,0,0,1,.882-.776.854.854,0,0,1,.321-.084l.052.092-.552.454c-.379.312-.8.591-.659,1.2.021.089-.146.227-.233.336s-.173.2-.26.3l.066.073c.325-.308.663-.6.969-.929.132-.141.2-.306.452-.265.1.017.237-.092.345-.162s.214-.243.292-.227a1.049,1.049,0,0,1,.529.259.534.534,0,0,1,.182.621.608.608,0,0,0,.208.778.114.114,0,0,1,.048.077c.017.416.042.832.037,1.248,0,.083-.121.164-.215.282.517.61.216,1.265-.073,1.9a3.925,3.925,0,0,0-.132,2.763.474.474,0,0,0,.136.245,2.418,2.418,0,0,1,.754,1.657C-556.4,101.4-555.941,101.74-555.687,102.242Z" transform="translate(563.689 -86.068)" fill="#e82828"/>
    </g>
  </g>
</svg>
