<svg id="Group_26" data-name="Group 26" xmlns="http://www.w3.org/2000/svg" xmlns:xlink="http://www.w3.org/1999/xlink" width="53.643" height="33.545" viewBox="0 0 53.643 33.545">
  <defs>
    <clipPath id="clip-path">
      <rect id="Rectangle_37" data-name="Rectangle 37" width="53.643" height="33.545" fill="none"/>
    </clipPath>
  </defs>
  <g id="Group_25" data-name="Group 25" transform="translate(0 0)" clip-path="url(#clip-path)">
    <path id="Path_1106" data-name="Path 1106" d="M51.111,32.493a.352.352,0,0,0,.34-.363v-3.3a2.787,2.787,0,0,0-.909-2.092A36.022,36.022,0,0,0,44.7,22.588l-.439-.251V18.028l.229-.259A2.667,2.667,0,0,0,45.157,16V11.188a4.527,4.527,0,0,0-4.321-4.7h-.954a4.549,4.549,0,0,0-4.321,4.71v4.813a2.67,2.67,0,0,0,.664,1.769l.229.259v3.271a.341.341,0,1,0,.681,0v-3.5a.384.384,0,0,0-.151-.3,1.829,1.829,0,0,1-.742-1.5V11.2a3.813,3.813,0,0,1,3.64-3.958h.954a3.813,3.813,0,0,1,3.64,3.958v4.813a1.829,1.829,0,0,1-.75,1.5.355.355,0,0,0-.143.3v4.64a.611.611,0,0,0,.3.524,34.715,34.715,0,0,1,6.231,4.338,2.052,2.052,0,0,1,.654,1.521v2.924H41.8a.371.371,0,0,0,0,.74h0Z" transform="translate(2.138 0.99)" fill="#8d8d8d"/>
    <path id="Path_1107" data-name="Path 1107" d="M51.111,32.493a.352.352,0,0,0,.34-.363v-3.3a2.787,2.787,0,0,0-.909-2.092A36.022,36.022,0,0,0,44.7,22.588l-.439-.251V18.028l.229-.259A2.667,2.667,0,0,0,45.157,16V11.188a4.527,4.527,0,0,0-4.321-4.7h-.954a4.549,4.549,0,0,0-4.321,4.71v4.813a2.67,2.67,0,0,0,.664,1.769l.229.259v3.271a.341.341,0,1,0,.681,0v-3.5a.384.384,0,0,0-.151-.3,1.829,1.829,0,0,1-.742-1.5V11.2a3.813,3.813,0,0,1,3.64-3.958h.954a3.813,3.813,0,0,1,3.64,3.958v4.813a1.829,1.829,0,0,1-.75,1.5.355.355,0,0,0-.143.3v4.64a.611.611,0,0,0,.3.524,34.715,34.715,0,0,1,6.231,4.338,2.052,2.052,0,0,1,.654,1.521v2.924H41.8a.371.371,0,0,0,0,.74h0Z" transform="translate(2.138 0.99)" fill="none" stroke="#8d8d8d" stroke-width="0.1"/>
    <path id="Path_1108" data-name="Path 1108" d="M15.938,11.2a4.527,4.527,0,0,0-4.321-4.7h-.954a4.527,4.527,0,0,0-4.321,4.7v4.811a2.668,2.668,0,0,0,.664,1.769l.229.259v4.311l-.442.25A34.669,34.669,0,0,0,.962,26.745a2.815,2.815,0,0,0-.912,2.1v3.281a.353.353,0,0,0,.334.37h9.46a.371.371,0,0,0,0-.74H.726V28.828a2.048,2.048,0,0,1,.645-1.513,33.539,33.539,0,0,1,6.255-4.352.583.583,0,0,0,.289-.519V17.809a.384.384,0,0,0-.151-.3,1.826,1.826,0,0,1-.742-1.5V11.195a3.813,3.813,0,0,1,3.64-3.958h.954a3.813,3.813,0,0,1,3.64,3.958v4.812a1.829,1.829,0,0,1-.75,1.5.352.352,0,0,0-.143.3v3.6a.341.341,0,1,0,.681,0V18.03l.229-.259A2.67,2.67,0,0,0,15.938,16Z" transform="translate(0.003 0.991)" fill="#8d8d8d"/>
    <path id="Path_1109" data-name="Path 1109" d="M15.938,11.2a4.527,4.527,0,0,0-4.321-4.7h-.954a4.527,4.527,0,0,0-4.321,4.7v4.811a2.668,2.668,0,0,0,.664,1.769l.229.259v4.311l-.442.25A34.669,34.669,0,0,0,.962,26.745a2.815,2.815,0,0,0-.912,2.1v3.281a.353.353,0,0,0,.334.37h9.46a.371.371,0,0,0,0-.74H.726V28.828a2.048,2.048,0,0,1,.645-1.513,33.539,33.539,0,0,1,6.255-4.352.583.583,0,0,0,.289-.519V17.809a.384.384,0,0,0-.151-.3,1.826,1.826,0,0,1-.742-1.5V11.195a3.813,3.813,0,0,1,3.64-3.958h.954a3.813,3.813,0,0,1,3.64,3.958v4.812a1.829,1.829,0,0,1-.75,1.5.352.352,0,0,0-.143.3v3.6a.341.341,0,1,0,.681,0V18.03l.229-.259A2.67,2.67,0,0,0,15.938,16Z" transform="translate(0.003 0.991)" fill="none" stroke="#8d8d8d" stroke-width="0.1"/>
    <path id="Path_1110" data-name="Path 1110" d="M11.891,33.105a.353.353,0,0,0,.334.37H40.063a.352.352,0,0,0,.34-.363V28.841a3.491,3.491,0,0,0-1.132-2.615,45.556,45.556,0,0,0-7.722-5.462l-.447-.249V14.792l.26-.265a3.267,3.267,0,0,0,.9-2.284V6.025A5.756,5.756,0,0,0,26.768.05H25.535a5.756,5.756,0,0,0-5.5,5.975v6.218a3.31,3.31,0,0,0,.9,2.295l.25.264v5.707l-.447.249a45.256,45.256,0,0,0-7.72,5.461,3.493,3.493,0,0,0-1.133,2.616Zm.693-4.264a2.718,2.718,0,0,1,.891-2.047,44.144,44.144,0,0,1,8.071-5.636.671.671,0,0,0,.339-.576v-6a.384.384,0,0,0-.151-.3,2.5,2.5,0,0,1-1-2.02V6.04A5.045,5.045,0,0,1,25.55.8h1.233A5.045,5.045,0,0,1,31.6,6.04v6.218a2.463,2.463,0,0,1-1.009,2.027.355.355,0,0,0-.141.3v6a.654.654,0,0,0,.337.576A45.985,45.985,0,0,1,38.847,26.8a2.716,2.716,0,0,1,.889,2.046v3.894H12.587Z" transform="translate(0.715 0.008)" fill="#8d8d8d"/>
    <path id="Path_1111" data-name="Path 1111" d="M11.891,33.105a.353.353,0,0,0,.334.37H40.063a.352.352,0,0,0,.34-.363V28.841a3.491,3.491,0,0,0-1.132-2.615,45.556,45.556,0,0,0-7.722-5.462l-.447-.249V14.792l.26-.265a3.267,3.267,0,0,0,.9-2.284V6.025A5.756,5.756,0,0,0,26.768.05H25.535a5.756,5.756,0,0,0-5.5,5.975v6.218a3.31,3.31,0,0,0,.9,2.295l.25.264v5.707l-.447.249a45.256,45.256,0,0,0-7.72,5.461,3.493,3.493,0,0,0-1.133,2.616Zm.693-4.264a2.718,2.718,0,0,1,.891-2.047,44.144,44.144,0,0,1,8.071-5.636.671.671,0,0,0,.339-.576v-6a.384.384,0,0,0-.151-.3,2.5,2.5,0,0,1-1-2.02V6.04A5.045,5.045,0,0,1,25.55.8h1.233A5.045,5.045,0,0,1,31.6,6.04v6.218a2.463,2.463,0,0,1-1.009,2.027.355.355,0,0,0-.141.3v6a.654.654,0,0,0,.337.576A45.985,45.985,0,0,1,38.847,26.8a2.716,2.716,0,0,1,.889,2.046v3.894H12.587Z" transform="translate(0.715 0.008)" fill="none" stroke="#8d8d8d" stroke-width="0.1"/>
  </g>
</svg>
