<svg xmlns="http://www.w3.org/2000/svg" xmlns:xlink="http://www.w3.org/1999/xlink" width="149.413" height="23.412" viewBox="0 0 149.413 23.412">
  <defs>
    <clipPath id="clip-path">
      <rect id="Rectangle_88" data-name="Rectangle 88" width="149.413" height="23.412" fill="none"/>
    </clipPath>
  </defs>
  <g id="Group_94" data-name="Group 94" transform="translate(0 0)">
    <g id="Group_93" data-name="Group 93" transform="translate(0 0)" clip-path="url(#clip-path)">
      <path id="Path_1157" data-name="Path 1157" d="M18.673,6.143h.09L18.711,6.1,22.04,2.769l.008-.06a10.82,10.82,0,0,0-17.6,5.28,1.7,1.7,0,0,1,.181-.06,7.866,7.866,0,0,1,4.256-1.3,7.968,7.968,0,0,1,1.529.143.081.081,0,0,1,.068-.015A6,6,0,0,1,18.7,6.136h-.023Z" transform="translate(-1.097 0)" fill="#747474"/>
      <path id="Path_1158" data-name="Path 1158" d="M28.77,8.879A10.915,10.915,0,0,0,25.5,3.606L22.119,6.988a6.037,6.037,0,0,1,2.207,4.768v.6c4.007,0,4.007,6.018,0,6.018H18.315l-.008.008v4.775h-.023l.038.038h6.011A7.825,7.825,0,0,0,28.77,8.879" transform="translate(-4.512 -0.89)" fill="#7d7d7d"/>
      <path id="Path_1159" data-name="Path 1159" d="M8.778,27.89h6.011V23.077H8.778a2.922,2.922,0,0,1-1.235-.271l-3.48,3.48-.008.038A7.851,7.851,0,0,0,8.778,27.89" transform="translate(-1.001 -5.628)" fill="#7c7c7c"/>
      <path id="Path_1160" data-name="Path 1160" d="M7.777,8.816A7.824,7.824,0,0,0,3.054,22.841l3.487-3.487a3.006,3.006,0,1,1,3.977-3.977l3.487-3.487A7.8,7.8,0,0,0,7.777,8.816" transform="translate(0 -2.175)" fill="#bbb"/>
      <path id="Path_1161" data-name="Path 1161" d="M55.441,19.973a7.726,7.726,0,0,1-5.581-2.29,7.434,7.434,0,0,1-2.335-5.506A7.439,7.439,0,0,1,49.86,6.671a7.7,7.7,0,0,1,5.581-2.335A7.478,7.478,0,0,1,60.789,6.49L59.283,8.019a5.569,5.569,0,0,0-7.818.166A5.514,5.514,0,0,0,49.837,12.2a5.509,5.509,0,0,0,1.627,3.962,5.669,5.669,0,0,0,7.909.09,4.506,4.506,0,0,0,1.16-2.629H55.464V11.461h7.178a7.048,7.048,0,0,1,.083,1.318,6.761,6.761,0,0,1-1.853,4.986,7.188,7.188,0,0,1-5.431,2.207m16.676-1.439a5.178,5.178,0,0,1-7.156,0A4.812,4.812,0,0,1,63.5,14.941a4.841,4.841,0,0,1,1.461-3.593,5.178,5.178,0,0,1,7.156,0,4.789,4.789,0,0,1,1.461,3.593,4.819,4.819,0,0,1-1.469,3.593Zm-5.574-1.409a2.737,2.737,0,0,0,3.992,0,3.016,3.016,0,0,0,.844-2.177,3.039,3.039,0,0,0-.844-2.192,2.788,2.788,0,0,0-4.015,0,3.008,3.008,0,0,0-.844,2.192,3,3,0,0,0,.851,2.177Zm16.571,1.409a5.178,5.178,0,0,1-7.156,0A4.812,4.812,0,0,1,74.5,14.941a4.812,4.812,0,0,1,1.461-3.593,5.163,5.163,0,0,1,7.156,0,4.818,4.818,0,0,1,1.461,3.593,4.812,4.812,0,0,1-1.461,3.593m-5.581-1.409a2.746,2.746,0,0,0,4,0,3.016,3.016,0,0,0,.844-2.177,3.039,3.039,0,0,0-.844-2.192,2.788,2.788,0,0,0-4.015,0,3.008,3.008,0,0,0-.844,2.192,3,3,0,0,0,.851,2.177Zm12.812,7.351a4.354,4.354,0,0,1-2.81-.9A5.211,5.211,0,0,1,85.894,21.5l1.928-.8a3.207,3.207,0,0,0,.957,1.258,2.411,2.411,0,0,0,1.582.535,2.522,2.522,0,0,0,1.966-.761,3.053,3.053,0,0,0,.7-2.192V18.82h-.075a3.2,3.2,0,0,1-2.644,1.137,4.57,4.57,0,0,1-3.382-1.469,4.85,4.85,0,0,1-1.446-3.54,4.906,4.906,0,0,1,1.446-3.57A4.593,4.593,0,0,1,90.308,9.9a3.7,3.7,0,0,1,1.552.346,3.2,3.2,0,0,1,1.092.8h.083v-.8h2.094v8.993a5.266,5.266,0,0,1-1.341,3.932,4.72,4.72,0,0,1-3.442,1.3m.151-6.485a2.45,2.45,0,0,0,1.906-.844,3.115,3.115,0,0,0,.768-2.162,3.2,3.2,0,0,0-.768-2.207,2.448,2.448,0,0,0-1.906-.844,2.631,2.631,0,0,0-1.981.844,3.221,3.221,0,0,0,0,4.346,2.6,2.6,0,0,0,1.981.866m8.361,1.672H96.65V4.9h2.207Zm6.041.309a4.784,4.784,0,0,1-3.555-1.446,4.908,4.908,0,0,1-1.431-3.585,4.973,4.973,0,0,1,1.378-3.615,4.522,4.522,0,0,1,3.382-1.409,4.164,4.164,0,0,1,1.687.331,4.011,4.011,0,0,1,1.3.844,5.711,5.711,0,0,1,.844,1.017,6.372,6.372,0,0,1,.5.987l.226.58-6.756,2.779a2.527,2.527,0,0,0,2.433,1.522,2.9,2.9,0,0,0,2.478-1.393l1.687,1.137a5.622,5.622,0,0,1-1.619,1.537,4.6,4.6,0,0,1-2.546.716m-2.817-5.182,4.489-1.868a1.515,1.515,0,0,0-.7-.768,2.311,2.311,0,0,0-1.16-.294,2.59,2.59,0,0,0-1.815.8,2.69,2.69,0,0,0-.813,2.132" transform="translate(-11.728 -1.07)" fill="#626262"/>
      <path id="Path_1162" data-name="Path 1162" d="M142.455,20.428a6.973,6.973,0,0,1-7.08-7.125,6.961,6.961,0,0,1,7.08-7.118,6.3,6.3,0,0,1,5.009,2.23L146.243,9.6a4.6,4.6,0,0,0-3.781-1.732A5.153,5.153,0,0,0,138.7,9.371a5.286,5.286,0,0,0-1.529,3.932,5.274,5.274,0,0,0,1.529,3.939,5.153,5.153,0,0,0,3.759,1.506,5.388,5.388,0,0,0,4.226-1.973l1.213,1.213a6.628,6.628,0,0,1-2.335,1.785,7.4,7.4,0,0,1-3.111.655" transform="translate(-33.407 -1.525)" fill="#626262"/>
      <rect id="Rectangle_87" data-name="Rectangle 87" width="1.747" height="13.641" transform="translate(116.015 4.954)" fill="#626262"/>
      <path id="Path_1163" data-name="Path 1163" d="M159.692,13.32a4.8,4.8,0,0,1,8.24,3.548,4.95,4.95,0,0,1-1.348,3.548,4.883,4.883,0,0,1-6.892,0,4.95,4.95,0,0,1-1.348-3.548,4.918,4.918,0,0,1,1.348-3.548m1.3,6a2.945,2.945,0,0,0,4.278,0,3.35,3.35,0,0,0,.9-2.448,3.382,3.382,0,0,0-.9-2.448,2.945,2.945,0,0,0-4.278,0,3.382,3.382,0,0,0-.9,2.448,3.328,3.328,0,0,0,.911,2.44Z" transform="translate(-39.075 -2.935)" fill="#626262"/>
      <path id="Path_1164" data-name="Path 1164" d="M181.236,21.631h-1.687v-1.3H179.5a3.229,3.229,0,0,1-1.235,1.167,3.514,3.514,0,0,1-1.732.467,3.293,3.293,0,0,1-2.651-1.062,4.25,4.25,0,0,1-.9-2.855V12.306h1.747v5.423q0,2.61,2.3,2.606a2.156,2.156,0,0,0,1.778-.844,3.173,3.173,0,0,0,.678-2.019V12.306h1.747v9.325Z" transform="translate(-42.684 -3.037)" fill="#626262"/>
      <path id="Path_1165" data-name="Path 1165" d="M190.371,20.526a4.1,4.1,0,0,1-3.126-1.431,5.067,5.067,0,0,1-1.311-3.54,5.055,5.055,0,0,1,1.311-3.54,4.1,4.1,0,0,1,3.126-1.424,3.943,3.943,0,0,1,1.913.459,3.126,3.126,0,0,1,1.265,1.137h.075l-.075-1.3V6.576H195.3V20.217H193.61v-1.3h-.075a3.126,3.126,0,0,1-1.265,1.137,3.893,3.893,0,0,1-1.9.467m.294-1.6a2.794,2.794,0,0,0,2.1-.911,3.415,3.415,0,0,0,.844-2.456,3.433,3.433,0,0,0-.844-2.463,2.861,2.861,0,0,0-4.226,0,3.354,3.354,0,0,0-.844,2.448,3.386,3.386,0,0,0,.844,2.448,2.8,2.8,0,0,0,2.124.934" transform="translate(-45.884 -1.623)" fill="#626262"/>
    </g>
  </g>
</svg>
