<svg id="Group_52" data-name="Group 52" xmlns="http://www.w3.org/2000/svg" xmlns:xlink="http://www.w3.org/1999/xlink" width="46.275" height="46.267" viewBox="0 0 46.275 46.267">
  <defs>
    <clipPath id="clip-path">
      <rect id="Rectangle_71" data-name="Rectangle 71" width="46.275" height="46.267" fill="none"/>
    </clipPath>
  </defs>
  <g id="Group_51" data-name="Group 51" clip-path="url(#clip-path)">
    <path id="Path_1122" data-name="Path 1122" d="M44.564,18.909H43.179a3.367,3.367,0,0,1-3.114-2.153c-.137-.36-.287-.718-.444-1.065a3.365,3.365,0,0,1,.666-3.731l.987-.988a1.71,1.71,0,0,0,0-2.413L37.71,4.995a1.72,1.72,0,0,0-2.412,0l-.985.984a3.363,3.363,0,0,1-3.733.667c-.337-.153-.7-.3-1.067-.444a3.328,3.328,0,0,1-2.149-3.109V1.706A1.708,1.708,0,0,0,25.658,0H20.616a1.709,1.709,0,0,0-1.707,1.706V3.091A3.367,3.367,0,0,1,16.756,6.2c-.359.137-.718.287-1.066.445a3.361,3.361,0,0,1-3.731-.666L10.971,5A1.709,1.709,0,0,0,8.558,5L4.995,8.557a1.7,1.7,0,0,0-.5,1.207,1.717,1.717,0,0,0,.5,1.207l.984.985a3.367,3.367,0,0,1,.667,3.733c-.153.338-.3.7-.444,1.067a3.324,3.324,0,0,1-3.109,2.151H1.706A1.708,1.708,0,0,0,0,20.613v5.042a1.708,1.708,0,0,0,1.706,1.706H3.1A3.367,3.367,0,0,1,6.21,29.514c.137.359.287.718.445,1.065a3.365,3.365,0,0,1-.666,3.731L5,35.3a1.709,1.709,0,0,0,0,2.413l3.562,3.562a1.7,1.7,0,0,0,1.207.5,1.719,1.719,0,0,0,1.207-.5l.985-.984a3.37,3.37,0,0,1,3.733-.668c.347.158.706.308,1.067.444a3.326,3.326,0,0,1,2.149,3.109v1.387a1.709,1.709,0,0,0,1.707,1.706h5.042a1.708,1.708,0,0,0,1.706-1.706V43.176a3.367,3.367,0,0,1,2.153-3.114c.359-.137.717-.286,1.066-.445a3.361,3.361,0,0,1,3.731.666l.988.987a1.709,1.709,0,0,0,2.413,0l3.562-3.562a1.7,1.7,0,0,0,.5-1.207,1.719,1.719,0,0,0-.5-1.207l-.984-.985a3.369,3.369,0,0,1-.668-3.732c.158-.346.308-.706.445-1.067a3.326,3.326,0,0,1,3.109-2.149h1.387a1.708,1.708,0,0,0,1.706-1.706V20.613a1.708,1.708,0,0,0-1.711-1.7m.814,6.748a.816.816,0,0,1-.814.814H43.175a4.215,4.215,0,0,0-3.94,2.723c-.131.345-.273.686-.423,1.016a4.266,4.266,0,0,0,.847,4.73l.986.987a.821.821,0,0,1,.239.577.813.813,0,0,1-.239.576l-3.562,3.562a.817.817,0,0,1-1.152,0l-.99-.989a4.258,4.258,0,0,0-4.728-.845c-.331.151-.673.293-1.015.423a4.264,4.264,0,0,0-2.727,3.946v1.387a.816.816,0,0,1-.814.814H20.615a.817.817,0,0,1-.815-.814V43.175a4.213,4.213,0,0,0-2.723-3.94c-.344-.13-.686-.273-1.016-.423a4.212,4.212,0,0,0-1.737-.373,4.262,4.262,0,0,0-2.993,1.22l-.987.986a.823.823,0,0,1-.576.239.811.811,0,0,1-.577-.239L5.629,37.083a.815.815,0,0,1,0-1.152l.989-.99a4.264,4.264,0,0,0,.845-4.728c-.15-.331-.293-.672-.423-1.015a4.264,4.264,0,0,0-3.946-2.727H1.707a.816.816,0,0,1-.814-.814V20.615a.816.816,0,0,1,.814-.814H3.1a4.214,4.214,0,0,0,3.94-2.725c.135-.353.277-.7.424-1.018a4.264,4.264,0,0,0-.847-4.729l-.986-.987a.814.814,0,0,1,0-1.152L9.189,5.63a.817.817,0,0,1,1.152,0l.989.989a4.259,4.259,0,0,0,4.728.845c.331-.151.673-.293,1.015-.423A4.264,4.264,0,0,0,19.8,3.1V1.708a.816.816,0,0,1,.815-.814h5.042a.816.816,0,0,1,.814.814V3.1a4.214,4.214,0,0,0,2.722,3.94c.355.136.7.278,1.017.423a4.262,4.262,0,0,0,4.73-.847l.985-.984a.826.826,0,0,1,1.155,0l3.562,3.562a.817.817,0,0,1,0,1.152l-.989.99a4.264,4.264,0,0,0-.845,4.728c.15.331.293.672.423,1.015A4.264,4.264,0,0,0,43.178,19.8h1.387a.816.816,0,0,1,.814.814Z" fill="#8d8d8d"/>
    <path id="Path_1123" data-name="Path 1123" d="M32.016,31.007a11.843,11.843,0,0,0-.229-15.992l-.005-.005a11.838,11.838,0,0,0-8.234-3.737l-.231-.006h-.36l-.231.006a11.838,11.838,0,0,0-8.234,3.737l0,.005a11.842,11.842,0,0,0-.23,15.992.014.014,0,0,0,.005.011.144.144,0,0,1,.026.025A11.85,11.85,0,0,0,22.726,35l.23.006h.36l.23-.006a11.848,11.848,0,0,0,8.445-3.966c.005-.007.014-.009.019-.016l.006-.011M12.09,23.546H17a15.142,15.142,0,0,0,.989,5,15.06,15.06,0,0,0-3.321,1.691,11,11,0,0,1-2.583-6.691m2.806-7.77a15.065,15.065,0,0,0,3.235,1.589A15.122,15.122,0,0,0,17,22.727H12.09A11,11,0,0,1,14.9,15.776M34.18,22.727H29.265a15.122,15.122,0,0,0-1.126-5.362,15.065,15.065,0,0,0,3.235-1.589,11.007,11.007,0,0,1,2.811,6.951ZM22.725,17.389a14.3,14.3,0,0,1-3.469-.525,14.332,14.332,0,0,1,3.469-4.519Zm0,.819v4.519h-4.9a14.3,14.3,0,0,1,1.092-5.108,15.121,15.121,0,0,0,3.809.589Zm.819,0a15.136,15.136,0,0,0,3.811-.589,14.284,14.284,0,0,1,1.092,5.108h-4.9Zm0-.819V12.345a14.332,14.332,0,0,1,3.469,4.519,14.335,14.335,0,0,1-3.468.528Zm4.262-.774a15.127,15.127,0,0,0-3.23-4.437,11.026,11.026,0,0,1,6.217,3,14.207,14.207,0,0,1-2.986,1.437Zm-9.343,0a14.226,14.226,0,0,1-2.987-1.44,11.019,11.019,0,0,1,6.217-3,15.119,15.119,0,0,0-3.229,4.44Zm-.64,6.931h4.9v4.11a15.117,15.117,0,0,0-3.956.631,14.3,14.3,0,0,1-.943-4.741Zm4.9,4.929v5.453a14.32,14.32,0,0,1-3.638-4.88,14.309,14.309,0,0,1,3.641-.573Zm.819,5.453V28.475a14.286,14.286,0,0,1,3.638.573,14.321,14.321,0,0,1-3.635,4.88Zm0-6.272v-4.11h4.9a14.282,14.282,0,0,1-.947,4.742,15.073,15.073,0,0,0-3.95-.632Zm5.721-4.11h4.915A11,11,0,0,1,31.6,30.24a15.06,15.06,0,0,0-3.321-1.691,15.136,15.136,0,0,0,.991-5ZM15.226,30.853A14.3,14.3,0,0,1,18.3,29.305a15.1,15.1,0,0,0,3.387,4.79,11.031,11.031,0,0,1-6.462-3.242ZM24.574,34.1a15.1,15.1,0,0,0,3.387-4.79,14.3,14.3,0,0,1,3.078,1.548,11.027,11.027,0,0,1-6.462,3.239Z" fill="#8d8d8d"/>
  </g>
</svg>
