<svg xmlns="http://www.w3.org/2000/svg" xmlns:xlink="http://www.w3.org/1999/xlink" width="24.144" height="35.667" viewBox="0 0 24.144 35.667">
  <defs>
    <clipPath id="clip-path">
      <rect id="Rectangle_220" data-name="Rectangle 220" width="24.144" height="35.667" fill="#fff"/>
    </clipPath>
  </defs>
  <g id="Group_316" data-name="Group 316" transform="translate(0 0)">
    <g id="Group_315" data-name="Group 315" transform="translate(0 0)" clip-path="url(#clip-path)">
      <path id="Path_1719" data-name="Path 1719" d="M11.882,35.667a3.311,3.311,0,0,1-.637-.56A136.216,136.216,0,0,1,3.881,22.945a46.678,46.678,0,0,1-3.1-6.9,11.76,11.76,0,0,1-.725-5.122A12.125,12.125,0,0,1,2.17,5.209,11.965,11.965,0,0,1,8.364.6,11.542,11.542,0,0,1,14.027.174,11.909,11.909,0,0,1,22.685,6.3a11.219,11.219,0,0,1,1.457,5.066,16.091,16.091,0,0,1-.759,4.679,42.121,42.121,0,0,1-3.087,6.9,135.581,135.581,0,0,1-7.36,12.156,3.313,3.313,0,0,1-.637.56Zm.193-2.553c.094-.131.15-.2.2-.278,2.31-3.493,4.481-7.07,6.437-10.774A40.393,40.393,0,0,0,22,14.411,9.093,9.093,0,0,0,21.848,8.9,9.967,9.967,0,0,0,17.1,3.139,9.888,9.888,0,0,0,8,2.688,9.952,9.952,0,0,0,2.339,8.9a8.808,8.808,0,0,0-.352,4.659,23.855,23.855,0,0,0,1.785,5.07A99.51,99.51,0,0,0,9.834,29.607c.72,1.162,1.471,2.3,2.241,3.507" transform="translate(0 -0.001)" fill="#fff"/>
      <path id="Path_1720" data-name="Path 1720" d="M90.682,82.913a6.7,6.7,0,1,1-6.69-6.728,6.711,6.711,0,0,1,6.69,6.728M88.87,82.9a4.885,4.885,0,1,0-4.883,4.9,4.9,4.9,0,0,0,4.883-4.9" transform="translate(-71.894 -70.867)" fill="#fff"/>
    </g>
  </g>
</svg>
