<svg xmlns="http://www.w3.org/2000/svg" xmlns:xlink="http://www.w3.org/1999/xlink" width="133.795" height="21.558" viewBox="0 0 133.795 21.558">
  <defs>
    <clipPath id="clip-path">
      <rect id="Rectangle_80" data-name="Rectangle 80" width="133.795" height="21.557" fill="none"/>
    </clipPath>
  </defs>
  <g id="Group_80" data-name="Group 80" transform="translate(0)">
    <path id="Path_1140" data-name="Path 1140" d="M18.958,0l-5.6,11.721L12.979,0H4.659L0,20.979H6.1L8.9,9.7l.221,11.279H13.46L19.08,9.7l-2.5,11.279h6.039L27.3,0Z" transform="translate(0 0)" fill="#666"/>
    <path id="Path_1141" data-name="Path 1141" d="M33.827,3.419h0ZM34.568,0l-.74,3.419h5.618L40.208,0Z" transform="translate(-5.81)" fill="#666"/>
    <path id="Path_1142" data-name="Path 1142" d="M32.53,6.566,29.071,22.1l5.659.02L38.19,6.566Z" transform="translate(-4.993 -1.128)" fill="#666"/>
    <g id="Group_79" data-name="Group 79" transform="translate(0 0)">
      <g id="Group_78" data-name="Group 78" clip-path="url(#clip-path)">
        <path id="Path_1143" data-name="Path 1143" d="M61.061,6.514h5.06l-.44,1.92a5.45,5.45,0,0,1,2.6-1.76,8.2,8.2,0,0,1,2.64-.42l-1.3,5.06c-.321,0-4.24-.761-5.46,5.22L62.9,22.071h-5.34l3.5-15.559Z" transform="translate(-9.887 -1.074)" fill="#666" fill-rule="evenodd"/>
        <path id="Path_1144" data-name="Path 1144" d="M54.871,16.276c0,.12-1.78,6.359-9.6,6.2-10.479-.22-7.759-17.019,4.14-16.419,6.759.34,6.42,5.96,6.359,6.2H49.929c.076-.22.28-2.54-1.58-2.5-3.46.1-5.919,8.677-2.1,8.759,1.76.06,2.579-1.979,2.74-2.24Z" transform="translate(-6.656 -1.038)" fill="#666" fill-rule="evenodd"/>
        <path id="Path_1145" data-name="Path 1145" d="M117.344,22.494c-11.379-.48-7.959-17.238,3.72-16.678,10.979.541,7.859,17.139-3.72,16.678m3.339-13.016c-3.78-.761-6.6,8.319-3,9.058,4,.837,6.68-8.318,3-9.058" transform="translate(-18.954 -0.997)" fill="#666" fill-rule="evenodd"/>
        <path id="Path_1146" data-name="Path 1146" d="M142.2,3.161c-1.56,0-1.859.6-2.119,1.78l-.1.52h3.3L144.1,1.7h5.16l-.8,3.759h2.659l-.78,3.577h-2.659l-1.46,6.819a2.193,2.193,0,0,0-.06,1.142c.22.62,2.44.36,2.44.36l-.86,3.559s-4.52.52-6.04-.54c-.68-.456-1.42-1.42-.96-3.48l1.74-7.84-3.1-.02L136.76,21H131.2l2.6-11.958h-2.86l.8-3.577h2.78c.5-2,.94-3.359,2.18-4.4,1.7-1.38,6.12-.837,6.12-.837l-.62,2.94Z" transform="translate(-22.49 -0.021)" fill="#666" fill-rule="evenodd"/>
        <path id="Path_1147" data-name="Path 1147" d="M81.812,16.65l10.558-.021s-.9,2.34,2.42,2.36c2.3,0,3.2-2.62.1-3.161-1.42-.259-6.92-1.179-6.3-5.419.52-3.479,4.14-4.7,8.1-4.643,8.1.1,6.579,4.859,6.679,5.18h-5.4s.58-2-1.859-2c-2.221,0-2.76,2-.2,2.54,3.121.681,6.7.837,6.9,4.86.06,1.12-.6,6.358-8.759,6.2-7.479-.16-8-3.679-7.8-5.32a9.782,9.782,0,0,1-9.3,5.239c-11.379-.36-7.916-17.218,3.74-16.638,5.3.259,7.319,4.28,6.679,8.239-.1.7-.16.8-.36.86l-5.2,1.72v0Zm-1.54-7.2c-3.74-.74-6.539,8.3-2.959,9.058,3.958.82,6.622-8.32,2.959-9.058" transform="translate(-12.019 -0.99)" fill="#666" fill-rule="evenodd"/>
        <path id="Path_1148" data-name="Path 1148" d="M158.642,6.544a2.01,2.01,0,0,1,.079,4.019h-.079a2.01,2.01,0,0,1-.079-4.019Zm0,.36a1.64,1.64,0,1,0-.1,3.279h.1a1.64,1.64,0,0,0,.1-3.279h-.1M159,8.783l.4.8h-.483l-.32-.8h-.28l-.12.86h-.419l.34-2.139h.98a.66.66,0,0,1,.5.66.6.6,0,0,1-.587.62H159Zm-.1-1h-.4l-.1.7h.4a.373.373,0,0,0,.435-.3.339.339,0,0,0-.313-.4H158.9" transform="translate(-26.896 -1.124)" fill="#666" fill-rule="evenodd"/>
      </g>
    </g>
  </g>
</svg>
