<svg id="Group_41" data-name="Group 41" xmlns="http://www.w3.org/2000/svg" xmlns:xlink="http://www.w3.org/1999/xlink" width="34.106" height="34.103" viewBox="0 0 34.106 34.103">
  <defs>
    <clipPath id="clip-path">
      <rect id="Rectangle_68" data-name="Rectangle 68" width="34.106" height="34.103" transform="translate(0 0)" fill="none"/>
    </clipPath>
  </defs>
  <g id="Group_40" data-name="Group 40" clip-path="url(#clip-path)">
    <path id="Path_1115" data-name="Path 1115" d="M33.721,27.929H31.4V6.173h2.319a.384.384,0,0,0,.384-.384V.384A.384.384,0,0,0,33.722,0H28.316a.384.384,0,0,0-.384.384V2.7H6.176V.384A.384.384,0,0,0,5.792,0H.386A.384.384,0,0,0,0,.384V5.79a.384.384,0,0,0,.384.384H2.7V27.929H.384A.384.384,0,0,0,0,28.313v5.406a.384.384,0,0,0,.384.384H5.79a.384.384,0,0,0,.384-.384V31.4H27.93v2.319a.384.384,0,0,0,.384.384H33.72a.384.384,0,0,0,.384-.384V28.312a.385.385,0,0,0-.383-.383m-3.086,0H28.316a.384.384,0,0,0-.384.384v2.319H6.176v-2.32a.384.384,0,0,0-.384-.384H3.473V6.173H5.792a.384.384,0,0,0,.384-.384V3.47H27.932V5.789a.384.384,0,0,0,.384.384h2.319Z" fill="#8d8d8d"/>
  </g>
</svg>
