<svg id="Group_2" data-name="Group 2" xmlns="http://www.w3.org/2000/svg" xmlns:xlink="http://www.w3.org/1999/xlink" width="386.431" height="141.662" viewBox="0 0 386.431 141.662">
  <defs>
    <clipPath id="clip-path">
      <rect id="Rectangle_1" data-name="Rectangle 1" width="386.431" height="141.662" fill="none"/>
    </clipPath>
  </defs>
  <g id="Group_1" data-name="Group 1" clip-path="url(#clip-path)">
    <path id="Path_1" data-name="Path 1" d="M88.555,135.918a7.146,7.146,0,0,1,14.277-.664c.01.221.01.443,0,.664a7.146,7.146,0,0,1-14.277.664q-.015-.332,0-.664m-8.922,0c0,7.308,5.184,15.806,16.061,15.806,10.792,0,16.061-8.5,16.061-15.806s-5.184-15.806-16.061-15.806-16.061,8.5-16.061,15.806M53.8,132.264c.255-1.359,2.039-4.673,6.628-4.673s6.458,3.314,6.628,4.673Zm22.009,6.714c.679-5.439-.425-10.2-4.164-14.277a15.231,15.231,0,0,0-11.3-4.759c-9.092,0-15.636,7.648-15.636,15.976a15.739,15.739,0,0,0,15.719,15.721,14.459,14.459,0,0,0,8.5-2.72,16.8,16.8,0,0,0,6.033-7.647H65.866a6.082,6.082,0,0,1-5.439,2.8c-3.484,0-6.458-2.125-6.883-5.268l22.264.17ZM14.879,111.19H6.127v39.6h9.687l-.256-23.874L30.681,150.79h8.757v-39.6H29.751l.255,24.134Z" transform="translate(-3.778 -68.556)"/>
    <text id="_CenterforGrowth" data-name="#CenterforGrowth" transform="translate(0 101.813)" fill="#e9282b" font-size="15" font-family="SegoeUI, Segoe UI" letter-spacing="0.123em"><tspan x="0" y="0">#CenterforGrowth</tspan></text>
    <path id="Path_2" data-name="Path 2" d="M298.968,142.355a2.185,2.185,0,0,1-.6-1.588V100.906a2.187,2.187,0,0,1,.6-1.587,2.153,2.153,0,0,1,3.185.17L328.408,135.1V100.906a2.136,2.136,0,0,1,.632-1.587,2.071,2.071,0,0,1,1.51-.624,2.05,2.05,0,0,1,1.537.624,2.189,2.189,0,0,1,.6,1.587v39.861a2.213,2.213,0,0,1-.6,1.559,2,2,0,0,1-1.537.652,1.777,1.777,0,0,1-1.593-.737l-26.31-35.608v34.134a2.216,2.216,0,0,1-.6,1.559,2,2,0,0,1-1.538.652,2.044,2.044,0,0,1-1.538-.623" transform="translate(-183.959 -60.852)"/>
    <path id="Path_3" data-name="Path 3" d="M438.053,133.893a2.093,2.093,0,0,1,.6,1.559V162.1a2.187,2.187,0,0,1-.6,1.587,2.048,2.048,0,0,1-1.538.624,1.958,1.958,0,0,1-1.51-.624,2.245,2.245,0,0,1-.577-1.587v-1.928a12.837,12.837,0,0,1-4.394,3.289,13.217,13.217,0,0,1-5.6,1.191,14.322,14.322,0,0,1-7-1.7,12,12,0,0,1-4.861-4.961,16.2,16.2,0,0,1-1.758-7.8V135.453a2.116,2.116,0,0,1,.6-1.531,1.985,1.985,0,0,1,1.483-.624,2.05,2.05,0,0,1,1.538.624,2.119,2.119,0,0,1,.6,1.531v14.742q0,5.048,2.719,7.683a9.785,9.785,0,0,0,7.113,2.637,10.777,10.777,0,0,0,4.861-1.077,8.644,8.644,0,0,0,3.433-2.977,7.462,7.462,0,0,0,1.263-4.224V135.453a2.147,2.147,0,0,1,.577-1.559,2.007,2.007,0,0,1,1.51-.6,2.1,2.1,0,0,1,1.538.6" transform="translate(-253.29 -82.187)"/>
    <path id="Path_4" data-name="Path 4" d="M509.505,162.072a14.66,14.66,0,0,1-5.355-5.67,16.566,16.566,0,0,1-1.95-8.023,17.406,17.406,0,0,1,1.868-8.137,14.142,14.142,0,0,1,5.163-5.642,13.8,13.8,0,0,1,7.415-2.041A13.533,13.533,0,0,1,527.8,138a1.77,1.77,0,0,1,.439,1.191,1.95,1.95,0,0,1-.934,1.587,1.817,1.817,0,0,1-1.044.34,2.178,2.178,0,0,1-1.593-.85,11.271,11.271,0,0,0-3.625-2.807,10.148,10.148,0,0,0-4.394-.936,9.677,9.677,0,0,0-9.035,5.727,14.112,14.112,0,0,0-1.291,6.123,13.1,13.1,0,0,0,1.373,6.039,10.324,10.324,0,0,0,9.5,5.755,10.145,10.145,0,0,0,7.086-2.438,2.238,2.238,0,0,1,1.483-.623,1.858,1.858,0,0,1,1.209.454,2.013,2.013,0,0,1,.769,1.531,1.639,1.639,0,0,1-.549,1.247,13.848,13.848,0,0,1-10,3.8,14.5,14.5,0,0,1-7.689-2.069" transform="translate(-309.638 -81.731)"/>
    <path id="Path_5" data-name="Path 5" d="M590.977,140.229a11.249,11.249,0,0,1-2.115-7.059V100.851a2.09,2.09,0,0,1,.6-1.559,2.031,2.031,0,0,1,1.483-.6,2.009,2.009,0,0,1,1.51.6,2.146,2.146,0,0,1,.577,1.559V133.17a7.365,7.365,0,0,0,.961,3.969,2.829,2.829,0,0,0,2.445,1.531h1.373a1.626,1.626,0,0,1,1.318.6,2.361,2.361,0,0,1,.495,1.559,1.965,1.965,0,0,1-.687,1.559,2.63,2.63,0,0,1-1.785.6h-.714a6.587,6.587,0,0,1-5.465-2.75" transform="translate(-363.07 -60.852)"/>
    <path id="Path_6" data-name="Path 6" d="M646.977,134.515a13.2,13.2,0,0,1,4.861,5.415,17.383,17.383,0,0,1,1.73,7.882,1.87,1.87,0,0,1-1.977,1.985H629.4a11.427,11.427,0,0,0,3.515,7.541,10.788,10.788,0,0,0,7.689,2.892,11.871,11.871,0,0,0,3.982-.709,9.565,9.565,0,0,0,3.213-1.786,2.36,2.36,0,0,1,1.483-.567,2.008,2.008,0,0,1,1.208.454,2.071,2.071,0,0,1,.714,1.531,1.743,1.743,0,0,1-.6,1.3,14.81,14.81,0,0,1-4.614,2.637,15.471,15.471,0,0,1-13.237-.964,14.137,14.137,0,0,1-5.41-5.613,16.8,16.8,0,0,1-1.95-8.137,17.743,17.743,0,0,1,1.84-8.193,13.642,13.642,0,0,1,12.551-7.626,13.293,13.293,0,0,1,7.195,1.956m-14.115,4.621a11.7,11.7,0,0,0-3.35,7.031h20.1a11.252,11.252,0,0,0-3.076-7.031,9.1,9.1,0,0,0-6.756-2.665,9.536,9.536,0,0,0-6.921,2.665" transform="translate(-385.593 -81.731)"/>
    <path id="Path_7" data-name="Path 7" d="M740.443,133.893a2.093,2.093,0,0,1,.6,1.559V162.1a2.187,2.187,0,0,1-.6,1.587,2.048,2.048,0,0,1-1.538.624,1.958,1.958,0,0,1-1.51-.624,2.246,2.246,0,0,1-.577-1.587v-1.928a12.84,12.84,0,0,1-4.394,3.289,13.217,13.217,0,0,1-5.6,1.191,14.321,14.321,0,0,1-7-1.7,12,12,0,0,1-4.861-4.961,16.21,16.21,0,0,1-1.757-7.8V135.453a2.117,2.117,0,0,1,.6-1.531,1.985,1.985,0,0,1,1.484-.624,2.05,2.05,0,0,1,1.538.624,2.119,2.119,0,0,1,.6,1.531v14.742q0,5.048,2.719,7.683a9.785,9.785,0,0,0,7.113,2.637,10.778,10.778,0,0,0,4.861-1.077,8.646,8.646,0,0,0,3.433-2.977,7.465,7.465,0,0,0,1.263-4.224V135.453a2.148,2.148,0,0,1,.577-1.559,2.007,2.007,0,0,1,1.51-.6,2.1,2.1,0,0,1,1.538.6" transform="translate(-439.732 -82.187)"/>
    <path id="Path_8" data-name="Path 8" d="M810.048,162.951A12.642,12.642,0,0,1,805,159.605a2.106,2.106,0,0,1-.549-1.3,2.177,2.177,0,0,1,.879-1.7,2.215,2.215,0,0,1,1.373-.51,2,2,0,0,1,1.593.794,8.414,8.414,0,0,0,3.488,2.438,13.06,13.06,0,0,0,4.806.85,10,10,0,0,0,5.767-1.36,4.331,4.331,0,0,0,1.977-3.572,4.046,4.046,0,0,0-1.923-3.4,15.036,15.036,0,0,0-6.1-2.041q-5.384-.906-8.047-3.147a6.839,6.839,0,0,1-2.664-5.415,7.471,7.471,0,0,1,3.1-6.407,12.825,12.825,0,0,1,7.772-2.268,14.606,14.606,0,0,1,6.316,1.276,11.174,11.174,0,0,1,4.339,3.544,2.633,2.633,0,0,1,.439,1.3,1.742,1.742,0,0,1-.879,1.531,1.718,1.718,0,0,1-1.043.284,2.484,2.484,0,0,1-1.923-.85,9.141,9.141,0,0,0-7.36-3.176,8.242,8.242,0,0,0-4.834,1.276,3.851,3.851,0,0,0-.11,6.464q1.7,1.221,6.042,1.956,5.876,1.021,8.4,3.317a7.39,7.39,0,0,1,2.527,5.7,7.617,7.617,0,0,1-1.511,4.65,9.831,9.831,0,0,1-4.2,3.175,15.562,15.562,0,0,1-6.1,1.134,18.23,18.23,0,0,1-6.536-1.191" transform="translate(-495.991 -81.731)"/>
    <path id="Path_9" data-name="Path 9" d="M771.67,8.76a11.715,11.715,0,0,0-.7-3.338,8.286,8.286,0,0,0-1.848-2.9A8.265,8.265,0,0,0,766.2.7,11.655,11.655,0,0,0,762.87.031a25.621,25.621,0,0,0-6.66.668c-21.305,4.283-51.98,32.657-51.963,32.508.03.079.062.156.1.232,2.08-1.377,28.644-26.157,51.994-32.17a20.193,20.193,0,0,1,6.487-.589,11,11,0,0,1,3.136.661,7.561,7.561,0,0,1,2.649,1.684,7.547,7.547,0,0,1,1.652,2.661,10.957,10.957,0,0,1,.626,3.129,23.222,23.222,0,0,1-.653,6.454,45.9,45.9,0,0,1-1.487,4.994l-.012,0q-.98,2.43-2.123,4.795a159.261,159.261,0,0,1-13.7,22.494c-5.107,7.164-10.62,14.037-16.367,20.7s-11.77,13.1-17.995,19.322-12.655,12.248-19.322,18-13.538,11.26-20.7,16.368a158.944,158.944,0,0,1-22.494,13.7c-1.976.954-3.987,1.832-6.032,2.612a47.684,47.684,0,0,1-6.255,1.942,23.167,23.167,0,0,1-6.444.652,10.945,10.945,0,0,1-3.125-.625,7.035,7.035,0,0,1-4.339-4.3,10.974,10.974,0,0,1-.66-3.132,23.267,23.267,0,0,1,.589-6.478,47.828,47.828,0,0,1,1.886-6.3c.763-2.06,1.623-4.086,2.559-6.076a128.448,128.448,0,0,1,6.28-11.616q2.525-4.18,5.278-8.219c-.058-.015-.116-.03-.174-.044l-.054-.012a150.458,150.458,0,0,0-11.732,19.7c-.961,1.99-1.847,4.019-2.636,6.087a48.393,48.393,0,0,0-1.971,6.35,23.853,23.853,0,0,0-.667,6.648,11.636,11.636,0,0,0,.668,3.325,7.745,7.745,0,0,0,4.713,4.755,11.679,11.679,0,0,0,3.331.7,23.957,23.957,0,0,0,6.682-.6,48.568,48.568,0,0,0,6.39-1.914c2.082-.771,4.126-1.64,6.132-2.583a129.124,129.124,0,0,0,11.681-6.315c3.788-2.289,7.484-4.722,11.1-7.266A314.4,314.4,0,0,0,719.559,88.58a314.315,314.315,0,0,0,34.358-40.322c2.543-3.618,4.98-7.313,7.267-11.1A129.083,129.083,0,0,0,767.5,25.475q1.019-2.166,1.9-4.4l.018.008c.034-.1.066-.2.1-.294.023-.058.048-.115.071-.173l-.011,0a46.763,46.763,0,0,0,1.484-5.161,23.986,23.986,0,0,0,.6-6.693" transform="translate(-387.511 0)" fill="#b2b2b2"/>
    <path id="Path_10" data-name="Path 10" d="M999.135,19.668a2.471,2.471,0,1,0,0,3.5,2.471,2.471,0,0,0,0-3.5" transform="translate(-613.428 -11.68)" fill="#e9282b"/>
  </g>
</svg>
