<svg xmlns="http://www.w3.org/2000/svg" xmlns:xlink="http://www.w3.org/1999/xlink" width="290.555" height="93.129" viewBox="0 0 290.555 93.129">
  <defs>
    <clipPath id="clip-path">
      <rect id="Rectangle_40" data-name="Rectangle 40" width="290.555" height="93.129" transform="translate(0 0.001)" fill="none"/>
    </clipPath>
  </defs>
  <g id="Group_311" data-name="Group 311" transform="translate(0 -0.001)" clip-path="url(#clip-path)">
    <path id="Path_143" data-name="Path 143" d="M101.381,41.075a8.789,8.789,0,0,1,17.559-.817c.013.272.013.545,0,.817a8.789,8.789,0,0,1-17.559.817c-.013-.272-.013-.545,0-.817m-10.974,0c0,8.988,6.376,19.44,19.754,19.44,13.274,0,19.754-10.452,19.754-19.44s-6.376-19.44-19.754-19.44S90.407,32.087,90.407,41.075M58.634,36.581c.314-1.672,2.508-5.748,8.152-5.748s7.943,4.076,8.152,5.748ZM85.7,44.838c.836-6.689-.523-12.542-5.121-17.559a18.734,18.734,0,0,0-13.9-5.853c-11.183,0-19.231,9.406-19.231,19.649A19.358,19.358,0,0,0,66.786,60.411a17.782,17.782,0,0,0,10.452-3.345,20.656,20.656,0,0,0,7.42-9.405H73.475a7.481,7.481,0,0,1-6.689,3.449c-4.285,0-7.943-2.613-8.466-6.48l27.383.209ZM10.765,10.661H0v48.7H11.915L11.6,30,30.2,59.366H40.97V10.661H29.056l.314,29.683Z" fill="#222"/>
    <path id="Path_144" data-name="Path 144" d="M145.591,10.661H134.826v48.7h11.915L146.426,30l18.6,29.369H175.8V10.661H163.882l.314,29.683Z" fill="#222"/>
    <path id="Path_145" data-name="Path 145" d="M266.412,59.361h12.437V21.531h11.706V10.661H254.706v10.87h11.706Z" fill="#222"/>
    <path id="Path_146" data-name="Path 146" d="M172.138,67.622h21.948l22.262-22.576L205.374,33.863Z" fill="#dd2432"/>
    <path id="Path_147" data-name="Path 147" d="M211.231,16.618l-11.5,11.706,16.618,16.723,9.616-9.72a2.906,2.906,0,0,0,0-3.972Z" fill="#dd2432"/>
    <path id="Path_148" data-name="Path 148" d="M205.479,10.661H182.485l22.889,23.2,6.585-6.689a7.2,7.2,0,0,0,0-10.034Z" fill="#222"/>
    <path id="Path_149" data-name="Path 149" d="M220.529,49.33l9.929,10.034h22.994L232.129,37.73Z" fill="#222"/>
    <path id="Path_150" data-name="Path 150" d="M260.768,0H238.82L220.634,18.4l11.079,11.079Z" fill="#dd2432"/>
    <path id="Path_151" data-name="Path 151" d="M12.333,89.884H10.451L4.7,81.941v7.943H2.717V78.805H4.7l5.644,7.734V78.805h1.986Z" fill="#222"/>
    <path id="Path_152" data-name="Path 152" d="M18.4,90.093a4.36,4.36,0,0,1-3.031-1.15,3.8,3.8,0,0,1-1.15-3.031,4.557,4.557,0,0,1,1.15-3.031,3.8,3.8,0,0,1,2.926-1.254,3.577,3.577,0,0,1,2.824,1.254,4.559,4.559,0,0,1,1.045,3.135v.418H15.991A2.745,2.745,0,0,0,16.723,88a2.459,2.459,0,0,0,1.777.627,3.075,3.075,0,0,0,2.3-.941l.836,1.15A4.328,4.328,0,0,1,18.4,90.093m2.09-4.912a2.064,2.064,0,0,0-.627-1.463,2.207,2.207,0,0,0-1.672-.627,1.834,1.834,0,0,0-1.568.627,2.064,2.064,0,0,0-.627,1.463Z" fill="#222"/>
    <path id="Path_153" data-name="Path 153" d="M31.041,89.884H29.055l-2.09-2.926-2.09,2.926H22.889l2.926-4.076-2.826-3.867h1.99l1.881,2.717,1.882-2.717h1.986L28.011,85.7Z" fill="#222"/>
    <path id="Path_154" data-name="Path 154" d="M34.594,90.093a1.876,1.876,0,0,1-2.09-1.634,1.831,1.831,0,0,1,0-.456V83.4H31.145V81.941H32.5v-2.3h1.777v2.195h1.672V83.3H34.281V87.48a1.509,1.509,0,0,0,.209.732.576.576,0,0,0,.523.314.815.815,0,0,0,.732-.314l.418,1.359a2.162,2.162,0,0,1-1.569.522" fill="#222"/>
    <path id="Path_155" data-name="Path 155" d="M47.032,90.1a5.44,5.44,0,0,1-3.972-1.568,5.663,5.663,0,0,1-1.672-4.181,5.439,5.439,0,0,1,1.672-4.181,5.933,5.933,0,0,1,4.181-1.57,5.235,5.235,0,0,1,4.494,2.3l-1.568.941a3.764,3.764,0,0,0-2.926-1.463,3.625,3.625,0,0,0-2.717,1.15,3.873,3.873,0,0,0-1.045,2.926,3.756,3.756,0,0,0,3.534,3.966c.076,0,.153.006.229.006a3.276,3.276,0,0,0,2.195-.732A2.876,2.876,0,0,0,50.482,85.7H46.51V84.031h6.062a6.631,6.631,0,0,1-1.463,4.494A5.2,5.2,0,0,1,47.032,90.1" fill="#222"/>
    <path id="Path_156" data-name="Path 156" d="M57.484,90.093a4.36,4.36,0,0,1-3.031-1.15,3.8,3.8,0,0,1-1.15-3.031,4.557,4.557,0,0,1,1.15-3.031,3.8,3.8,0,0,1,2.926-1.254A3.581,3.581,0,0,1,60.2,82.881a4.559,4.559,0,0,1,1.045,3.135v.418H55.08A2.745,2.745,0,0,0,55.812,88a2.459,2.459,0,0,0,1.777.627,3.075,3.075,0,0,0,2.3-.941l.836,1.15a4.328,4.328,0,0,1-3.241,1.255m2.09-4.912a2.064,2.064,0,0,0-.627-1.463,2.207,2.207,0,0,0-1.672-.627,1.834,1.834,0,0,0-1.568.627,2.064,2.064,0,0,0-.627,1.463Z" fill="#222"/>
    <path id="Path_157" data-name="Path 157" d="M70.234,89.883H68.457V84.867c0-.627-.1-1.045-.418-1.254a2.24,2.24,0,0,0-1.254-.418,2.109,2.109,0,0,0-1.15.314,3.254,3.254,0,0,0-.941.732v5.644H62.918V81.836h1.777v1.045a6.537,6.537,0,0,1,1.254-.941,4.394,4.394,0,0,1,1.669-.418,3.014,3.014,0,0,1,1.986.627,2.552,2.552,0,0,1,.627,1.881v5.853Z" fill="#222"/>
    <path id="Path_158" data-name="Path 158" d="M76.192,90.093a4.36,4.36,0,0,1-3.031-1.15,3.8,3.8,0,0,1-1.15-3.031,4.552,4.552,0,0,1,1.15-3.031,3.8,3.8,0,0,1,2.926-1.254,3.577,3.577,0,0,1,2.824,1.254,4.559,4.559,0,0,1,1.045,3.135v.418H73.79A2.745,2.745,0,0,0,74.522,88a2.459,2.459,0,0,0,1.777.627,3.075,3.075,0,0,0,2.3-.941l.836,1.15a4.331,4.331,0,0,1-3.243,1.255m2.09-4.912a2.064,2.064,0,0,0-.627-1.463,2.207,2.207,0,0,0-1.672-.627,1.834,1.834,0,0,0-1.568.627,2.064,2.064,0,0,0-.627,1.463Z" fill="#222"/>
    <path id="Path_159" data-name="Path 159" d="M83.508,89.884H81.731V81.836h1.777v1.15a3.26,3.26,0,0,1,1.15-.941,3.4,3.4,0,0,1,1.463-.418V83.4H85.6a2.393,2.393,0,0,0-1.15.314,2.278,2.278,0,0,0-.941.732Z" fill="#222"/>
    <path id="Path_160" data-name="Path 160" d="M94.9,89.883H93.124v-1.15a3.171,3.171,0,0,1-2.613,1.254,3.562,3.562,0,0,1-2.613-1.15A4.222,4.222,0,0,1,86.853,85.7,4.122,4.122,0,0,1,87.9,82.671a3.562,3.562,0,0,1,2.613-1.15,3.132,3.132,0,0,1,2.613,1.359V81.73H94.9Zm-3.763-1.361a2.109,2.109,0,0,0,1.15-.314c.418-.209.732-.418.836-.732V84.344a2.807,2.807,0,0,0-.836-.732,2.393,2.393,0,0,0-1.15-.314,1.95,1.95,0,0,0-1.672.732,2.919,2.919,0,0,0-.627,1.881,2.552,2.552,0,0,0,.627,1.881,2.273,2.273,0,0,0,1.672.73" fill="#222"/>
    <path id="Path_161" data-name="Path 161" d="M99.6,90.093a1.876,1.876,0,0,1-2.09-1.634,1.831,1.831,0,0,1,0-.456V83.4H96.155V81.941h1.359v-2.3h1.777v2.195h1.672V83.3H99.291V87.48a1.509,1.509,0,0,0,.209.732.576.576,0,0,0,.523.314.815.815,0,0,0,.732-.314l.418,1.359a2.162,2.162,0,0,1-1.569.522" fill="#222"/>
    <path id="Path_162" data-name="Path 162" d="M104.1,80.478a1.01,1.01,0,1,1,.314-.732.948.948,0,0,1-.314.732m.1,9.406h-1.777V81.836H104.2Z" fill="#222"/>
    <path id="Path_163" data-name="Path 163" d="M113.087,88.838a3.865,3.865,0,0,1-3.031,1.254,4.019,4.019,0,0,1-3.031-1.254,4.36,4.36,0,0,1-1.15-3.031,4.552,4.552,0,0,1,1.15-3.031,3.865,3.865,0,0,1,3.031-1.254,4.019,4.019,0,0,1,3.031,1.254,4.36,4.36,0,0,1,1.15,3.031,3.938,3.938,0,0,1-1.15,3.031m-2.926-.314a1.95,1.95,0,0,0,1.672-.732,3.137,3.137,0,0,0,0-3.763,2.277,2.277,0,0,0-3.218-.127c-.044.04-.086.083-.127.127a3.134,3.134,0,0,0,0,3.763,2.273,2.273,0,0,0,1.672.73Z" fill="#222"/>
    <path id="Path_164" data-name="Path 164" d="M123.224,89.883h-1.777V84.867c0-.627-.1-1.045-.418-1.254a2.24,2.24,0,0,0-1.254-.418,2.109,2.109,0,0,0-1.15.314,3.254,3.254,0,0,0-.941.732v5.644h-1.776V81.836h1.777v1.045a6.537,6.537,0,0,1,1.254-.941,4.394,4.394,0,0,1,1.669-.418,3.014,3.014,0,0,1,1.986.627,2.552,2.552,0,0,1,.627,1.881v5.853Z" fill="#222"/>
    <path id="Path_165" data-name="Path 165" d="M136.394,88.838a3.865,3.865,0,0,1-3.031,1.254,4.019,4.019,0,0,1-3.031-1.254,4.36,4.36,0,0,1-1.15-3.031,4.552,4.552,0,0,1,1.15-3.031,3.865,3.865,0,0,1,3.031-1.254,4.019,4.019,0,0,1,3.031,1.254,4.36,4.36,0,0,1,1.15,3.031,3.938,3.938,0,0,1-1.15,3.031m-2.926-.314a1.95,1.95,0,0,0,1.672-.732,3.137,3.137,0,0,0,0-3.763,2.277,2.277,0,0,0-3.218-.127c-.044.04-.086.083-.127.127a3.133,3.133,0,0,0,0,3.763,2.107,2.107,0,0,0,1.672.73Z" fill="#222"/>
    <path id="Path_166" data-name="Path 166" d="M141.514,89.884h-1.777V83.4h-1.358v-1.46h1.359v-.418a2.847,2.847,0,0,1,.732-2.09,2.372,2.372,0,0,1,1.881-.732,3.038,3.038,0,0,1,1.463.314l-.418,1.359a1.509,1.509,0,0,0-.732-.209c-.732,0-1.15.418-1.15,1.359v.418h1.672V83.4h-1.672Z" fill="#222"/>
    <path id="Path_167" data-name="Path 167" d="M156.461,89.884h-7.63V78.805h7.63v1.672h-5.644V83.3h5.539v1.672h-5.539v3.134h5.644Z" fill="#222"/>
    <path id="Path_168" data-name="Path 168" d="M165.553,89.883h-1.777V84.867c0-.627-.1-1.045-.418-1.254a2.24,2.24,0,0,0-1.254-.418,2.109,2.109,0,0,0-1.15.314,3.255,3.255,0,0,0-.941.732v5.644h-1.776V81.836h1.777v1.045a6.536,6.536,0,0,1,1.254-.941,4.394,4.394,0,0,1,1.669-.418,3.014,3.014,0,0,1,1.986.627,2.552,2.552,0,0,1,.627,1.881v5.853Z" fill="#222"/>
    <path id="Path_169" data-name="Path 169" d="M171.093,93.127a4.989,4.989,0,0,1-3.345-1.15l.836-1.254a3.179,3.179,0,0,0,2.613,1.045,2.89,2.89,0,0,0,1.672-.523,2.106,2.106,0,0,0,.732-1.672v-.946a3.006,3.006,0,0,1-2.613,1.359,3.215,3.215,0,0,1-2.613-1.15,5.354,5.354,0,0,1,0-6.062,3.247,3.247,0,0,1,2.613-1.15,3.006,3.006,0,0,1,2.613,1.359v-1.15h1.777v7.63a4.5,4.5,0,0,1-.314,1.777,2.556,2.556,0,0,1-.941,1.15,5.218,5.218,0,0,1-1.359.523,10.437,10.437,0,0,1-1.671.214m.314-4.808a2.109,2.109,0,0,0,1.15-.314,3.255,3.255,0,0,0,.941-.732V84.24a2.278,2.278,0,0,0-.941-.732,2.393,2.393,0,0,0-1.15-.314,1.95,1.95,0,0,0-1.672.732,3.137,3.137,0,0,0,0,3.763,2.207,2.207,0,0,0,1.672.627Z" fill="#222"/>
    <path id="Path_170" data-name="Path 170" d="M179.141,80.478a1.01,1.01,0,1,1,.314-.732.948.948,0,0,1-.314.732m.1,9.406h-1.777V81.836h1.777Z" fill="#222"/>
    <path id="Path_171" data-name="Path 171" d="M188.651,89.883h-1.777V84.867c0-.627-.1-1.045-.418-1.254a2.24,2.24,0,0,0-1.254-.418,2.109,2.109,0,0,0-1.15.314,3.255,3.255,0,0,0-.941.732v5.644h-1.776V81.836h1.777v1.045a6.537,6.537,0,0,1,1.254-.941,4.394,4.394,0,0,1,1.669-.418,3.014,3.014,0,0,1,1.986.627,2.552,2.552,0,0,1,.627,1.881Z" fill="#222"/>
    <path id="Path_172" data-name="Path 172" d="M194.714,90.093a4.36,4.36,0,0,1-3.031-1.15,3.8,3.8,0,0,1-1.15-3.031,4.552,4.552,0,0,1,1.15-3.031,3.8,3.8,0,0,1,2.926-1.254,3.581,3.581,0,0,1,2.822,1.254,4.559,4.559,0,0,1,1.045,3.135v.418H192.31A2.745,2.745,0,0,0,193.042,88a2.459,2.459,0,0,0,1.777.627,3.075,3.075,0,0,0,2.3-.941l.836,1.15a4.5,4.5,0,0,1-3.241,1.255m2.09-4.912a2.064,2.064,0,0,0-.627-1.463,2.207,2.207,0,0,0-1.672-.627,1.834,1.834,0,0,0-1.568.627,2.064,2.064,0,0,0-.627,1.463Z" fill="#222"/>
    <path id="Path_173" data-name="Path 173" d="M203.911,90.093a4.36,4.36,0,0,1-3.031-1.15,3.8,3.8,0,0,1-1.15-3.031,4.552,4.552,0,0,1,1.15-3.031,3.8,3.8,0,0,1,2.926-1.254,3.581,3.581,0,0,1,2.822,1.254,4.559,4.559,0,0,1,1.045,3.135v.418h-6.166A2.745,2.745,0,0,0,202.239,88a2.459,2.459,0,0,0,1.777.627,3.075,3.075,0,0,0,2.3-.941l.836,1.15a4.173,4.173,0,0,1-3.241,1.255m2.2-4.912a2.064,2.064,0,0,0-.627-1.463,2.207,2.207,0,0,0-1.672-.627,1.834,1.834,0,0,0-1.568.627,2.064,2.064,0,0,0-.627,1.463Z" fill="#222"/>
    <path id="Path_174" data-name="Path 174" d="M211.227,89.884H209.45V81.836h1.777v1.15a3.259,3.259,0,0,1,1.15-.941,3.4,3.4,0,0,1,1.463-.418V83.4h-.523a2.393,2.393,0,0,0-1.15.314,2.278,2.278,0,0,0-.941.732Z" fill="#222"/>
    <path id="Path_175" data-name="Path 175" d="M216.871,80.479a1.01,1.01,0,1,1,.314-.732.95.95,0,0,1-.314.732m.1,9.406h-1.777V81.837h1.777Z" fill="#222"/>
    <path id="Path_176" data-name="Path 176" d="M226.487,89.883H224.71V84.867c0-.627-.1-1.045-.418-1.254a2.24,2.24,0,0,0-1.254-.418,2.109,2.109,0,0,0-1.15.314,3.254,3.254,0,0,0-.941.732v5.644h-1.672V81.836h1.777v1.045a6.537,6.537,0,0,1,1.254-.941,4.394,4.394,0,0,1,1.669-.418,3.014,3.014,0,0,1,1.986.627,2.552,2.552,0,0,1,.627,1.881v5.853Z" fill="#222"/>
    <path id="Path_177" data-name="Path 177" d="M232.026,93.127a4.989,4.989,0,0,1-3.345-1.15l.836-1.254a3.179,3.179,0,0,0,2.613,1.045,2.89,2.89,0,0,0,1.672-.523,2.106,2.106,0,0,0,.732-1.672v-.946a3.006,3.006,0,0,1-2.613,1.359,3.215,3.215,0,0,1-2.613-1.15,5.354,5.354,0,0,1,0-6.062,3.247,3.247,0,0,1,2.613-1.15,3.132,3.132,0,0,1,2.613,1.359v-1.15h1.777v7.63A4.5,4.5,0,0,1,236,91.24a2.556,2.556,0,0,1-.941,1.15,5.232,5.232,0,0,1-1.359.523,9.132,9.132,0,0,1-1.671.214m.314-4.808A2.109,2.109,0,0,0,233.49,88a2.278,2.278,0,0,0,.941-.732V84.24a2.278,2.278,0,0,0-.941-.732,2.393,2.393,0,0,0-1.15-.314,1.95,1.95,0,0,0-1.672.733,3.137,3.137,0,0,0,0,3.763,2.206,2.206,0,0,0,1.672.626Z" fill="#222"/>
    <path id="Path_178" data-name="Path 178" d="M247.285,89.884H245.4V80.477h-3.345V78.805h8.675v1.672h-3.345v9.406Z" fill="#222"/>
    <path id="Path_179" data-name="Path 179" d="M257.946,89.883h-1.777v-1.15a3.171,3.171,0,0,1-2.613,1.254,3.562,3.562,0,0,1-2.613-1.15A4.222,4.222,0,0,1,249.9,85.7a4.122,4.122,0,0,1,1.045-3.031,3.562,3.562,0,0,1,2.613-1.15,3.132,3.132,0,0,1,2.613,1.359V81.73h1.777Zm-3.763-1.361a2.109,2.109,0,0,0,1.15-.314c.418-.209.732-.418.836-.732V84.344a2.82,2.82,0,0,0-.836-.732,2.393,2.393,0,0,0-1.15-.314,1.95,1.95,0,0,0-1.672.732,2.919,2.919,0,0,0-.627,1.881,2.552,2.552,0,0,0,.627,1.881,2.273,2.273,0,0,0,1.672.73" fill="#222"/>
    <path id="Path_180" data-name="Path 180" d="M262.231,90.093a2.573,2.573,0,0,1-1.568-.523A2.165,2.165,0,0,1,260.141,88v-9.2h1.777v8.779a1.509,1.509,0,0,0,.209.732.575.575,0,0,0,.523.314.814.814,0,0,0,.732-.314l.418,1.359a2.825,2.825,0,0,1-1.569.418" fill="#222"/>
    <path id="Path_181" data-name="Path 181" d="M268.711,90.093a4.36,4.36,0,0,1-3.031-1.15,3.8,3.8,0,0,1-1.15-3.031,4.552,4.552,0,0,1,1.15-3.031,3.8,3.8,0,0,1,2.926-1.254,3.581,3.581,0,0,1,2.822,1.254,4.559,4.559,0,0,1,1.045,3.135v.418h-6.166A2.745,2.745,0,0,0,267.039,88a2.459,2.459,0,0,0,1.777.627,3.075,3.075,0,0,0,2.3-.941l.836,1.15a4.328,4.328,0,0,1-3.241,1.255m2.09-4.912a2.064,2.064,0,0,0-.627-1.463,2.207,2.207,0,0,0-1.672-.627,1.834,1.834,0,0,0-1.568.627,2.064,2.064,0,0,0-.627,1.463Z" fill="#222"/>
    <path id="Path_182" data-name="Path 182" d="M281.462,89.883h-1.777V84.867c0-.627-.1-1.045-.418-1.254a2.24,2.24,0,0,0-1.254-.418,2.109,2.109,0,0,0-1.15.314,5.75,5.75,0,0,0-.941.732v5.644h-1.776V81.836h1.777v1.045a6.536,6.536,0,0,1,1.254-.941,4.394,4.394,0,0,1,1.669-.418,3.014,3.014,0,0,1,1.986.627,2.552,2.552,0,0,1,.627,1.881Z" fill="#222"/>
    <path id="Path_183" data-name="Path 183" d="M286.165,90.093a1.876,1.876,0,0,1-2.09-1.634,1.83,1.83,0,0,1,0-.456V83.4h-1.359V81.941h1.359v-2.3h1.777v2.195h1.672V83.3h-1.672V87.48a1.509,1.509,0,0,0,.209.732.576.576,0,0,0,.523.314.815.815,0,0,0,.732-.314l.418,1.359a2.568,2.568,0,0,1-1.569.522" fill="#222"/>
  </g>
</svg>
