<svg id="Group_5" data-name="Group 5" xmlns="http://www.w3.org/2000/svg" xmlns:xlink="http://www.w3.org/1999/xlink" width="320.721" height="85.757" viewBox="0 0 320.721 85.757">
  <defs>
    <clipPath id="clip-path">
      <rect id="Rectangle_3" data-name="Rectangle 3" width="320.721" height="85.757" fill="#fff"/>
    </clipPath>
  </defs>
  <g id="Group_3" data-name="Group 3" clip-path="url(#clip-path)">
    <path id="Path_1066" data-name="Path 1066" d="M13.544,2.54H2.36V53.28H14.783L14.5,22.7,33.921,53.28H45.176V2.54H33.1l-.071,30.929ZM91.626,38.194c.894-6.995-.542-13.1-5.351-18.244a19.464,19.464,0,0,0-14.4-6.03c-11.6,0-19.966,9.807-19.966,20.431A20.212,20.212,0,0,0,72.083,54.526a18.45,18.45,0,0,0,10.838-3.444,22.3,22.3,0,0,0,7.752-9.736H79.007a7.677,7.677,0,0,1-6.929,3.563c-4.463,0-8.3-2.675-8.788-6.715ZM63.42,29.561c.28-1.782,2.61-6.036,8.514-6.036s8.228,4.254,8.508,6.036ZM96.5,34.214c0,9.325,6.655,20.24,20.514,20.24s20.52-10.916,20.52-20.24-6.655-20.222-20.52-20.222S96.5,24.889,96.5,34.149Zm11.386,0a9.139,9.139,0,1,1,18.256,0,9.138,9.138,0,1,1-18.256.071Z" transform="translate(-0.954 -1.027)" fill="#fff" fill-rule="evenodd"/>
    <path id="Path_1067" data-name="Path 1067" d="M236.009,35.822c-.346,9.95,5,17.773,18.316,17.773,13.454,0,17.7-8.169,17.7-16.254,0-5.9-2.4-10.29-11.869-14.538-9.128-4.117-10.5-4.737-10.5-7.066a4.225,4.225,0,0,1,4.457-3.974c3.98,0,4.391,3.223,4.665,4.939h12.834C271.413,4.493,261.529.93,254.528.93c-8.514,0-17.773,5.422-17.773,15.64,0,9.521,8.848,13.084,12.423,14.532,7.817,3.289,9.95,4.111,9.95,6.786a4.906,4.906,0,0,1-4.939,4.874c-1.65,0-5.279-1.031-5.279-6.935h-12.9Zm40-7.942a26.175,26.175,0,0,0,26.7,25.722c15.777,0,26.9-12.214,26.9-26.341A26.324,26.324,0,0,0,302.772.93c-14,0-26.764,10.29-26.764,26.878Zm12.971-.751c0-7.132,4.874-14.818,13.859-14.818,9.331,0,13.793,8.437,13.793,15.015,0,6.512-4.463,14.872-13.656,14.872-8.717,0-14-7.263-14-15.009ZM336.6,52.63h12.965V33.3h14.21V21.915h-14.21V13.27H364.32V1.889H336.6Zm40.82,0h12.971V13.27h9.95V1.889H367.4V13.264h10.016Z" transform="translate(-95.383 -0.376)" fill="#fff" fill-rule="evenodd"/>
    <path id="Path_1068" data-name="Path 1068" d="M6.28,128.635H4.212V109.647H0v-2.062H10.492v2.062H6.28Zm16.8-11.613h8.848V119.1H23.076v7.5h8.848v2.032H20.991v-21.05H31.918v2.062H23.076Zm37.936-3.992a9.422,9.422,0,0,0-3.17-2.9,8.29,8.29,0,0,0-3.992-.918,8.05,8.05,0,0,0-6.018,2.592,8.675,8.675,0,0,0-2.491,6.2,9.019,9.019,0,0,0,2.485,6.441,8.006,8.006,0,0,0,6.024,2.616,8.575,8.575,0,0,0,3.95-.918,8.711,8.711,0,0,0,3.063-2.723h2.461a10.593,10.593,0,0,1-3.879,4.159,10.955,10.955,0,0,1-13.2-1.7,11.071,11.071,0,0,1,.191-15.676,10.281,10.281,0,0,1,7.442-3.051,10.619,10.619,0,0,1,5.654,1.531,10.876,10.876,0,0,1,3.968,4.344H61.012Zm15.926,15.6H74.848v-21.05h2.091v9.438h10v-9.438h2.073v21.05H86.943v-9.6h-10Zm38.353-2.508-.25-18.542H117.1v21.05h-2.491l-11.559-18.572.232,18.572h-2.038v-21.05h2.485Zm15.229-8.121a8.958,8.958,0,0,0,2.5,6.453,8.257,8.257,0,0,0,6.179,2.61,8.041,8.041,0,0,0,6.06-2.634,9.124,9.124,0,0,0,2.467-6.489,8.533,8.533,0,0,0-2.544-6.185,8.251,8.251,0,0,0-6.131-2.6,8.045,8.045,0,0,0-2.812.506,8.33,8.33,0,0,0-2.5,1.472,9.073,9.073,0,0,0-3.217,6.864m-2.175-.024a10.61,10.61,0,0,1,.852-4.2,10.972,10.972,0,0,1,2.449-3.575,10.671,10.671,0,0,1,3.408-2.282,10.858,10.858,0,0,1,13.984,5.839,10.885,10.885,0,0,1,.816,4.218,11.722,11.722,0,0,1-.7,4.111,10.42,10.42,0,0,1-2.079,3.408,11.009,11.009,0,0,1-3.629,2.663,10.9,10.9,0,0,1-4.4.9,10.1,10.1,0,0,1-7.615-3.194,10.906,10.906,0,0,1-3.086-7.889m42.232,10.653h-9.486v-21.05h2.085V126.6h7.4Zm12.179-10.63a8.968,8.968,0,0,0,2.508,6.453,8.244,8.244,0,0,0,6.173,2.61,8.041,8.041,0,0,0,6.06-2.634,9.155,9.155,0,0,0,2.473-6.489,8.515,8.515,0,0,0-2.55-6.185,8.247,8.247,0,0,0-6.125-2.6,8.029,8.029,0,0,0-2.818.506,8.16,8.16,0,0,0-2.491,1.472,8.852,8.852,0,0,0-2.365,3.1,8.663,8.663,0,0,0-.864,3.76m-2.169-.024a10.7,10.7,0,0,1,.84-4.2,11.255,11.255,0,0,1,2.449-3.575,10.629,10.629,0,0,1,14.991.036,10.433,10.433,0,0,1,2.407,3.521,10.884,10.884,0,0,1,.816,4.218,11.859,11.859,0,0,1-.7,4.111,10.318,10.318,0,0,1-2.079,3.408,10.5,10.5,0,0,1-8.026,3.563,10.132,10.132,0,0,1-7.621-3.194,10.974,10.974,0,0,1-3.08-7.889m40.087.56h13.09a10.992,10.992,0,0,1-3.307,7.561,10.359,10.359,0,0,1-7.484,2.961,10.15,10.15,0,0,1-7.638-3.188,10.93,10.93,0,0,1-3.074-7.889,10.768,10.768,0,0,1,.84-4.2,11.106,11.106,0,0,1,2.461-3.575,10.32,10.32,0,0,1,3.45-2.306,11.387,11.387,0,0,1,4.207-.745,10.367,10.367,0,0,1,5.505,1.478,10.873,10.873,0,0,1,3.909,4.242h-2.55a10.111,10.111,0,0,0-3.188-2.806,7.937,7.937,0,0,0-3.8-.906,8.221,8.221,0,0,0-6.143,2.6,8.687,8.687,0,0,0-2.5,6.244,8.929,8.929,0,0,0,2.5,6.459,8.271,8.271,0,0,0,6.179,2.6,8.06,8.06,0,0,0,5.19-1.859,8.538,8.538,0,0,0,2.985-4.8h-10.63v-1.871Zm26.371,10.093h-2.062V107.579h2.062Zm14.359-11.613h8.854V119.1h-8.854v7.5h8.854v2.032H259.327v-21.05H270.26v2.062h-8.854Zm20.014,5.6h1.99a4.718,4.718,0,0,0,1.108,3.1,3.561,3.561,0,0,0,2.753,1.162,3.84,3.84,0,0,0,2.925-1.15,4.4,4.4,0,0,0,1.084-3.116c0-1.919-1.484-3.36-4.433-4.332-.238-.077-.405-.131-.518-.173A7.305,7.305,0,0,1,283,116.1a4.837,4.837,0,0,1-1.031-3.194,5.683,5.683,0,0,1,1.579-4.123,5.39,5.39,0,0,1,4.052-1.6,4.959,4.959,0,0,1,3.76,1.454,6.309,6.309,0,0,1,1.549,4.111h-1.954a4.368,4.368,0,0,0-1.031-2.657,3,3,0,0,0-2.33-.935,3.38,3.38,0,0,0-2.55,1.025,3.593,3.593,0,0,0-.995,2.6,2.917,2.917,0,0,0,1.245,2.52,10.256,10.256,0,0,0,2.55,1.1c.715.226,1.269.417,1.644.566a6.376,6.376,0,0,1,2.961,2.032,5.331,5.331,0,0,1,.9,3.241,7.15,7.15,0,0,1-1.662,4.939,5.648,5.648,0,0,1-4.433,1.883,5.369,5.369,0,0,1-4.183-1.776,6.807,6.807,0,0,1-1.65-4.653" transform="translate(0 -43.307)" fill="#fff" fill-rule="evenodd"/>
    <path id="Path_1069" data-name="Path 1069" d="M522.918,0a6.524,6.524,0,1,0,6.518,6.524A6.521,6.521,0,0,0,522.918,0m0,11.988a5.467,5.467,0,1,1,5.464-5.464,5.463,5.463,0,0,1-5.464,5.464" transform="translate(-208.716)" fill="#fff" fill-rule="evenodd"/>
    <path id="Path_1070" data-name="Path 1070" d="M524.28,5.671a8.278,8.278,0,0,1,1.579-.131,2.689,2.689,0,0,1,1.77.459,1.469,1.469,0,0,1,.495,1.162,1.507,1.507,0,0,1-1.043,1.43v.024a1.42,1.42,0,0,1,.792,1.114c.191.709.352,1.376.453,1.6h-1.072a7.71,7.71,0,0,1-.381-1.353c-.173-.751-.435-1-1.031-1.007h-.53v2.359H524.28ZM525.311,8.2h.614c.715,0,1.15-.375,1.15-.947,0-.614-.435-.918-1.12-.918a2.709,2.709,0,0,0-.649.054V8.2Z" transform="translate(-211.901 -2.239)" fill="#fff"/>
  </g>
</svg>
