<svg xmlns="http://www.w3.org/2000/svg" xmlns:xlink="http://www.w3.org/1999/xlink" width="297.514" height="297.514" viewBox="0 0 297.514 297.514">
  <defs>
    <clipPath id="clip-path">
      <path id="Path_1718" data-name="Path 1718" d="M20.013,0a13.375,13.375,0,0,0-3.087.389C9.313,2.277,4.917,10.5,10.578,12.6c1.557.54,3.131-2.062,3.331-3.338.072-.433-.052-.58-.364-.443a2,2,0,0,1-1.358.029,2.731,2.731,0,0,1-1.369-.841,2.016,2.016,0,0,1-.466-1.582c.288-3.807,10.2-7.714,13.876-2.863A14.231,14.231,0,0,1,26.717,9.5a21.525,21.525,0,0,1,.166,6.311,31.7,31.7,0,0,1-1.6,6.986,39.355,39.355,0,0,1-3.278,7.042,37.589,37.589,0,0,1-4.851,6.476A16.611,16.611,0,0,0,13.4,34.845a13.555,13.555,0,0,0-4.232-.373,13.426,13.426,0,0,0-3.516.683,10.705,10.705,0,0,0-2.632,1.331,7.324,7.324,0,0,0-1.776,1.783A6.98,6.98,0,0,0,.29,40.143a4.491,4.491,0,0,0-.166,2.621c2.437,10.015,28.71,9.847,36.363,8.418,7.824-1.453,14.681-4.913,18.184-12.137a17.172,17.172,0,0,0,1.464-4.435,15.307,15.307,0,0,0,.031-4.437,13.241,13.241,0,0,0-1.259-4.1,11.483,11.483,0,0,0-3.211-3.99A12.381,12.381,0,0,0,47.326,19.9a14.493,14.493,0,0,0-5.05-.406,15.511,15.511,0,0,0-5.2,1.4L40.013,6.919H58.531c.226,0,.338-2.1.338-2.331a.3.3,0,0,0-.338-.342H35.649c-.135,0-.25.081-.342.269L31.688,24.437a.272.272,0,0,0,.133.414.491.491,0,0,0,.412-.072,16.723,16.723,0,0,1,4.681-3.035,11.529,11.529,0,0,1,4.944-.985,9.06,9.06,0,0,1,4.648,1.429,11.19,11.19,0,0,1,3.756,4.23,12.063,12.063,0,0,1,1.161,3.824,14.8,14.8,0,0,1-.073,4.228,15.613,15.613,0,0,1-1.356,4.3C41.912,55.462,2.377,51.439.768,42.632A5,5,0,0,1,.9,40.34,8.123,8.123,0,0,1,1.764,38.7a6.418,6.418,0,0,1,1.5-1.6,8.816,8.816,0,0,1,2.149-1.2,7.842,7.842,0,0,1,2.8-.474,7.27,7.27,0,0,1,3.58.89c1.077.592,2.176,1.255,3.317,1.981A40.946,40.946,0,0,1,10.2,41.914q-.624.4-1.743,1.027A19.127,19.127,0,0,1,6.1,44a10.7,10.7,0,0,1-2.354.571,14.937,14.937,0,0,0,10.89-2.118c1.048-.629,2.157-1.373,3.338-2.248q2.257,1.712,4.439,3.108a19.088,19.088,0,0,0,4.576,2.149c9.24,2.791,23.048-3.162,20.056-14.11a12.89,12.89,0,0,0-1.6-3.6,8.653,8.653,0,0,0-4.779-3.7c-3.5-.965-8.133,1.191-9.327,4.706a5.475,5.475,0,0,0-.259,1.646,9.35,9.35,0,0,1,.994-2.433c1.015-1.617,3.029-3.234,6.971-2.073A6.367,6.367,0,0,1,41.3,27.207a9.6,9.6,0,0,1,1.76,1.886,9.83,9.83,0,0,1,1.493,2.768c2.926,8.385-4.865,14.456-12.373,13.122A12.165,12.165,0,0,1,29.1,43.959a25.476,25.476,0,0,1-3.066-1.745c-1.01-.656-1.985-1.348-2.936-2.072s-1.868-1.391-2.727-1.979c.59-.592,1.17-1.2,1.743-1.816s1.1-1.234,1.6-1.876a35.016,35.016,0,0,0,3.317-4.81,37.533,37.533,0,0,0,2.489-5.224A32.029,32.029,0,0,0,31.843,14.1a16.865,16.865,0,0,0-1.578-8.429C28.408,1.89,24.328.041,20.267,0Z" transform="translate(0)" fill="#fff"/>
    </clipPath>
  </defs>
  <g id="Group_341" data-name="Group 341" transform="translate(-1258.486 -44)">
    <path id="Path_1076" data-name="Path 1076" d="M0,0H297.514V297.514Z" transform="translate(1258.486 44)" fill="#e82828"/>
    <text id="YEARS_OF_EXCELLENCE" data-name="YEARS OF
EXCELLENCE" transform="translate(1472 146)" fill="#fff" font-size="18" font-family="Renogare-Regular, Renogare"><tspan x="-49.194" y="0">YEARS OF</tspan><tspan x="-65.367" y="22">EXCELLENCE</tspan></text>
    <g id="Group_11" data-name="Group 11" transform="translate(2 2)">
      <text id="_" data-name="+" transform="translate(1501 103)" fill="#fff" font-size="26" font-family="SegoeUI, Segoe UI"><tspan x="-8.893" y="0">+</tspan></text>
      <g id="Group_312" data-name="Group 312" transform="translate(1432.283 67.639)">
        <g id="Group_311" data-name="Group 311" transform="translate(0)" clip-path="url(#clip-path)">
          <rect id="Rectangle_219" data-name="Rectangle 219" width="77.469" height="78.416" transform="translate(-23.213 43.525) rotate(-62.7)" fill="#fff"/>
        </g>
      </g>
    </g>
  </g>
</svg>
